<svg width="437" height="265" viewBox="0 0 437 265" fill="none" xmlns="http://www.w3.org/2000/svg">
<path d="M234.256 246.44H48.6502C48.5455 246.44 48.4573 246.436 48.3625 246.426C46.8621 246.267 34.998 244.814 23.5223 237.657C12.0748 230.518 1 217.701 1 194.732C1 174.812 9.98788 162.867 20.4232 155.685C30.8847 148.485 42.821 146.061 48.6729 145.271C50.9515 144.963 52.7887 143.121 53.0582 140.831C53.5907 136.308 54.9618 128.132 58.3929 119.73C61.8252 111.326 67.3009 102.738 76.0172 97.3274C92.7069 86.9683 114.871 89.1477 124.509 90.7863C127.277 91.2568 129.993 89.2882 130.371 86.4995C131.567 77.6889 135.469 58.2937 147.697 41.1125C159.907 23.9575 180.434 8.98047 214.972 8.98047C249.412 8.98047 272.06 20.0522 286.724 32.759C301.397 45.4743 308.104 59.8537 310.607 66.4996C311.469 68.7882 313.913 70.2053 316.328 69.7937C321.608 68.8939 331.656 67.7594 342.698 69.5011C353.736 71.2422 365.738 75.8519 374.98 86.4142C392.392 106.313 391.133 129.196 389.539 138.985C389.084 141.779 391.041 144.606 393.825 145.143C399.861 146.306 410.415 149.276 419.451 156.607C428.466 163.921 436 175.598 436 194.262C436 216.664 425.143 229.562 413.863 236.94C402.558 244.334 390.82 246.183 389.138 246.417C389.012 246.434 388.902 246.44 388.759 246.44H234.256Z" fill="white" stroke="#CED4E2"/>
<path d="M50.0107 66.4826L154.219 29.7031L253.712 114.579L309.824 29.7031L408.374 96.189L371.123 192.381L250.411 239.063L144.788 159.374L32.0925 198.04L48.1246 69.3117" stroke="#FF7C33" stroke-dasharray="3 3"/>
<path d="M49.5392 66.0082L145.732 155.599L154.219 30.1719" stroke="#FF7C33" stroke-dasharray="3 3"/>
<path d="M250.411 234.83C250.411 232.19 252.298 155.77 253.241 117.891L146.675 158.914" stroke="#FF7C33" stroke-dasharray="3 3"/>
<path d="M368.766 189.088L256.541 117.415L403.659 96.668" stroke="#FF7C33" stroke-dasharray="3 3"/>
<path d="M159.878 27.3516H303.695" stroke="#FF7C33" stroke-dasharray="3 3"/>
<path d="M33.0356 198.523L248.054 238.604" stroke="#FF7C33" stroke-dasharray="3 3"/>
<circle cx="256.541" cy="118.359" r="27.8203" fill="#FF0000"/>
<path d="M257.356 131.047L249.811 130.908C247.367 130.86 244.918 130.956 242.523 130.458C238.879 129.713 238.621 126.06 238.351 122.996C237.979 118.688 238.123 114.303 238.825 110.031C239.222 107.634 240.782 106.204 243.195 106.048C251.341 105.483 259.541 105.55 267.669 105.814C268.528 105.838 269.392 105.97 270.239 106.12C274.417 106.853 274.519 110.993 274.79 114.477C275.06 117.998 274.946 121.537 274.429 125.033C274.015 127.928 273.223 130.356 269.878 130.59C265.688 130.897 261.594 131.144 257.392 131.065C257.392 131.047 257.368 131.047 257.356 131.047ZM252.92 123.717C256.078 121.902 259.175 120.118 262.315 118.316C259.151 116.501 256.06 114.717 252.92 112.915V123.717Z" fill="white"/>
<circle cx="32.5641" cy="197.099" r="20.7474" fill="black"/>
<path fill-rule="evenodd" clip-rule="evenodd" d="M47.6522 200.97V192H38.2983V200.97H47.6522ZM45.5206 194.576C44.8001 194.162 44.0792 193.947 43.4045 193.947C42.684 193.947 42.0857 194.177 41.6258 194.637C41.1505 195.082 40.9053 195.634 40.9053 196.324C40.9053 196.983 41.1505 197.551 41.6107 198.011C42.1012 198.44 42.684 198.655 43.3893 198.655C44.1407 198.655 44.8767 198.425 45.5974 197.965V198.931C44.9225 199.299 44.1712 199.483 43.3432 199.483C42.6378 199.483 42.0551 199.345 41.5642 199.069C41.0945 198.783 40.7002 198.389 40.4143 197.919C40.1383 197.398 39.9849 196.876 39.9849 196.324C39.9849 195.404 40.3069 194.653 40.9663 194.039C41.6105 193.426 42.408 193.104 43.3432 193.104C44.0178 193.104 44.7385 193.273 45.5205 193.625V194.576H45.5206ZM37.2558 192H27.9019V200.97H37.2558V192ZM30.7694 193.334H32.3948C32.9162 193.334 33.3151 193.395 33.6061 193.533C33.8975 193.687 34.1121 193.871 34.2503 194.101C34.4034 194.346 34.4803 194.622 34.4803 194.944C34.4803 195.557 34.1735 195.987 33.5294 196.248C33.9895 196.324 34.3574 196.508 34.6182 196.815C34.8787 197.091 35.0016 197.444 35.0168 197.842C35.0016 198.149 34.9249 198.44 34.7716 198.686C34.6027 198.931 34.3727 199.131 34.0508 199.299C33.7288 199.452 33.3454 199.529 32.87 199.529H30.7694V193.334Z" fill="white"/>
<path fill-rule="evenodd" clip-rule="evenodd" d="M32.242 195.987C32.7172 195.987 33.0546 195.895 33.254 195.726C33.4534 195.527 33.5605 195.297 33.5605 195.006C33.5605 194.423 33.1774 194.116 32.4259 194.116H31.6594V195.987H32.242ZM32.4873 196.784H31.6594V198.731H32.5488C32.9627 198.731 33.3001 198.701 33.5147 198.64C33.714 198.532 33.8521 198.41 33.944 198.272C34.036 198.118 34.0974 197.95 34.0974 197.766C34.0819 197.582 34.036 197.413 33.9286 197.26C33.8366 197.091 33.6834 196.968 33.4685 196.891C33.2695 196.815 32.932 196.769 32.4873 196.784ZM26.829 192H17.4751V200.97H26.829V192ZM20.3274 199.529V193.334H21.9528C22.4742 193.334 22.8576 193.395 23.1489 193.533C23.4402 193.671 23.6702 193.871 23.8083 194.116C23.9615 194.346 24.0383 194.622 24.0536 194.944C24.0383 195.557 23.7317 195.987 23.0876 196.263C23.563 196.339 23.9156 196.523 24.1764 196.815C24.4371 197.091 24.5751 197.443 24.5751 197.842C24.5751 198.164 24.4985 198.455 24.3298 198.685C24.1611 198.946 23.9311 199.145 23.6244 199.299C23.3025 199.452 22.9037 199.529 22.4284 199.529H20.3274V199.529Z" fill="white"/>
<path fill-rule="evenodd" clip-rule="evenodd" d="M21.9837 194.121H21.217V195.992H21.815C22.275 195.992 22.6123 195.9 22.8118 195.731C23.011 195.547 23.1185 195.302 23.1185 195.026C23.1183 194.428 22.7351 194.121 21.9837 194.121ZM22.045 196.789H21.217V198.736H22.091C22.551 198.736 22.8883 198.706 23.0877 198.644C23.2564 198.568 23.3943 198.46 23.5016 198.307C23.5937 198.138 23.6396 197.97 23.655 197.771C23.6396 197.556 23.5782 197.387 23.4862 197.265C23.381 197.095 23.2174 196.969 23.0262 196.912C22.8117 196.82 22.4744 196.789 22.045 196.789Z" fill="white"/>
<circle cx="309.824" cy="32.0641" r="32.0641" fill="#CC262D"/>
<path fill-rule="evenodd" clip-rule="evenodd" d="M329.83 38.0224V34.6247H329.72C329.72 35.6956 329.546 36.3964 329.264 36.8728C328.919 37.4619 328.248 37.8101 327.364 37.8101H326.989V31.5711C327.354 31.5711 327.828 31.5862 328.141 31.9999C328.462 32.4287 328.514 33.03 328.514 33.8221H328.594V29.1624H328.514C328.514 29.927 328.481 30.5493 328.138 31.0084C327.819 31.438 327.354 31.4636 326.989 31.4636V25.681H327.481C328.135 25.681 328.749 25.8548 329.157 26.4836C329.506 27.0193 329.613 27.8875 329.613 28.7878H329.72V25.4659H324.553V25.5731H325.462V37.9183H324.553V38.0227H329.83V38.0224ZM318.34 38.0224V34.598H318.234C318.234 35.5884 318.046 36.4197 317.778 36.873C317.378 37.5534 316.681 37.8303 315.987 37.8303H315.501V25.5671H316.419V25.4648H313.039V25.5671H313.976L313.983 37.918H313.039V38.0224H318.34ZM306.808 38.0224V34.598H306.699C306.699 35.5884 306.513 36.4197 306.244 36.873C305.845 37.5534 305.148 37.8303 304.454 37.8303H303.969V25.5671H304.886V25.4648H301.505V25.5671H302.44L302.448 37.918H301.505V38.0224H306.808ZM295.294 38.0224V34.6247H295.186C295.186 35.6956 295.011 36.3964 294.731 36.8728C294.384 37.4619 293.714 37.8101 292.83 37.8101H292.455V31.5711C292.821 31.5711 293.293 31.5862 293.607 31.9999C293.929 32.4287 293.981 33.03 293.981 33.8221H294.062V29.1624H293.981C293.981 29.927 293.948 30.5493 293.605 31.0084C293.285 31.438 292.822 31.4636 292.455 31.4636V25.681H292.946C293.601 25.681 294.215 25.8548 294.624 26.4836C294.973 27.0193 295.078 27.8875 295.078 28.7878H295.186V25.4659H290.02V25.5731H290.928V37.9183H290.02V38.0227H295.294V38.0224Z" fill="white"/>
<circle cx="248.054" cy="235.292" r="29.7065" fill="#CD242E"/>
<path d="M236.405 232.622C236.464 232.168 236.49 231.737 236.575 231.322C236.803 230.214 237.703 229.423 238.89 229.232C239.16 229.188 239.43 229.172 239.705 229.172C245.532 229.172 251.353 229.172 257.18 229.172C257.514 229.172 257.847 229.199 258.176 229.281C259.405 229.581 259.876 230.493 259.844 231.65C259.839 231.923 259.776 232.19 259.76 232.463C259.749 232.6 259.691 232.632 259.574 232.622C259.511 232.616 259.452 232.622 259.389 232.622C251.846 232.622 244.298 232.622 236.755 232.622C236.638 232.622 236.527 232.622 236.405 232.622Z" fill="#FEFDFD"/>
<path d="M240.886 233.918C242.274 233.918 243.657 233.918 245.044 233.918C245.675 233.918 246.273 234.06 246.776 234.475C247.343 234.944 247.534 235.594 247.497 236.298C247.444 237.275 247.317 238.252 247.126 239.212C246.893 240.402 246.083 240.992 245.013 241.281C244.663 241.374 244.303 241.412 243.937 241.412C241.178 241.412 238.413 241.406 235.653 241.417C235.414 241.417 235.356 241.357 235.388 241.117C235.51 240.206 235.616 239.3 235.711 238.383C235.732 238.175 235.828 238.148 236.002 238.148C238.386 238.153 240.77 238.148 243.148 238.159C243.397 238.159 243.466 238.072 243.482 237.848C243.498 237.586 243.524 237.324 243.572 237.062C243.614 236.838 243.588 236.751 243.328 236.756C241.66 236.772 239.991 236.762 238.322 236.767C238.084 236.767 237.846 236.745 237.613 236.685C236.76 236.461 236.273 235.828 236.204 234.84C236.135 233.918 236.135 233.918 237.014 233.918C238.312 233.918 239.599 233.918 240.886 233.918Z" fill="#FEFDFD"/>
<path d="M229.286 241.415C227.607 241.415 225.933 241.41 224.254 241.421C224.021 241.421 223.984 241.355 224.016 241.131C224.249 239.265 224.466 237.398 224.688 235.531C224.746 235.062 224.805 234.593 224.847 234.123C224.863 233.932 224.953 233.916 225.107 233.916C226.097 233.921 227.082 233.916 228.073 233.916C230.441 233.916 232.803 233.921 235.171 233.91C235.436 233.91 235.468 233.992 235.436 234.232C235.335 234.996 235.245 235.766 235.16 236.53C235.139 236.732 235.065 236.77 234.88 236.77C232.84 236.765 230.801 236.77 228.762 236.759C228.571 236.759 228.486 236.798 228.47 237.016C228.454 237.343 228.401 237.665 228.354 237.987C228.338 238.108 228.364 238.162 228.486 238.151C228.55 238.146 228.608 238.151 228.672 238.151C230.658 238.151 232.644 238.151 234.631 238.151C234.959 238.151 234.959 238.151 234.917 238.479C234.805 239.379 234.694 240.28 234.599 241.186C234.578 241.382 234.503 241.415 234.339 241.415C232.655 241.41 230.97 241.415 229.286 241.415Z" fill="#FEFDFD"/>
<path d="M254.07 233.917C255.791 233.917 257.513 233.917 259.234 233.917C259.568 233.917 259.579 233.917 259.536 234.25C259.499 234.572 259.473 234.905 259.393 235.216C259.144 236.199 258.35 236.755 257.195 236.761C255.881 236.766 254.562 236.761 253.249 236.761C253.048 236.761 252.841 236.761 252.64 236.761C252.174 236.761 252.179 236.761 252.121 237.241C251.967 238.557 251.803 239.872 251.654 241.193C251.633 241.379 251.57 241.411 251.411 241.411C250.23 241.406 249.043 241.406 247.862 241.411C247.687 241.411 247.661 241.357 247.676 241.193C247.962 238.84 248.243 236.488 248.519 234.13C248.54 233.928 248.63 233.906 248.794 233.906C250.558 233.923 252.317 233.917 254.07 233.917Z" fill="#FEFDFD"/>
<path d="M266.296 232.619C264.468 232.619 262.641 232.614 260.813 232.625C260.559 232.625 260.527 232.548 260.554 232.319C260.681 231.353 260.803 230.392 260.903 229.426C260.925 229.208 260.999 229.164 261.189 229.164C262.99 229.17 264.791 229.17 266.592 229.17C267.599 229.17 268.605 229.17 269.612 229.17C270.215 229.17 270.788 229.284 271.291 229.655C271.81 230.037 272.032 230.583 272.091 231.216C272.128 231.626 272.064 232.03 272.032 232.439C272.016 232.63 271.905 232.619 271.778 232.619C269.951 232.619 268.123 232.619 266.296 232.619Z" fill="#FEFDFD"/>
<path d="M230.339 232.622C228.655 232.622 226.965 232.616 225.281 232.627C225.074 232.627 225.026 232.572 225.053 232.37C225.18 231.361 225.302 230.351 225.418 229.341C225.434 229.21 225.477 229.161 225.598 229.177C225.641 229.183 225.689 229.177 225.731 229.177C229.068 229.177 232.405 229.177 235.742 229.172C235.98 229.172 236.033 229.221 236.002 229.472C235.869 230.433 235.758 231.399 235.657 232.365C235.636 232.578 235.573 232.632 235.371 232.632C233.698 232.616 232.018 232.622 230.339 232.622Z" fill="#FEFDFD"/>
<path d="M261.455 241.417C260.862 241.417 260.274 241.412 259.681 241.423C259.506 241.428 259.474 241.374 259.495 241.204C259.781 238.847 260.062 236.483 260.337 234.12C260.353 233.978 260.396 233.918 260.544 233.918C261.741 233.923 262.944 233.923 264.141 233.918C264.342 233.918 264.321 234.011 264.305 234.153C264.135 235.566 263.971 236.98 263.802 238.399C263.69 239.327 263.569 240.255 263.473 241.183C263.452 241.396 263.378 241.428 263.198 241.423C262.62 241.406 262.038 241.417 261.455 241.417Z" fill="#FEFDFD"/>
<path d="M268.971 241.416C268.388 241.416 267.805 241.405 267.223 241.421C266.99 241.427 266.99 241.318 267.011 241.149C267.159 239.942 267.302 238.731 267.445 237.524C267.583 236.4 267.721 235.27 267.848 234.146C267.869 233.971 267.922 233.922 268.091 233.922C269.267 233.927 270.438 233.933 271.614 233.922C271.81 233.922 271.852 233.977 271.826 234.168C271.656 235.549 271.492 236.924 271.328 238.305C271.211 239.271 271.089 240.232 270.984 241.198C270.962 241.372 270.915 241.427 270.74 241.421C270.152 241.405 269.564 241.416 268.971 241.416Z" fill="#FEFDFD"/>
<circle cx="369.237" cy="189.572" r="20.7474" fill="#009FDA"/>
<path d="M378.948 186.21H380.415L379.69 184.207L378.948 186.21ZM376.417 181.895L375.614 183.406C375.614 183.406 374.889 182.867 374.087 182.852C373.731 182.852 373.438 183.021 373.361 183.36C373.283 183.714 373.438 183.976 374.441 184.239C375.445 184.516 375.908 184.731 376.247 185.24C376.633 185.826 376.68 186.365 376.68 186.365L378.608 181.357H380.801L383.703 189.246H381.465L380.954 187.859H378.3L377.791 189.246H375.63L375.862 188.476C375.862 188.476 375.198 189.339 373.731 189.339C372.08 189.339 370.752 188.291 370.752 188.291L371.663 186.627C371.663 186.627 372.281 187.304 373.084 187.444C373.747 187.551 374.241 187.382 374.364 186.935C374.519 186.381 374.241 186.164 373.747 186.01C373.238 185.856 372.389 185.749 371.817 185.286C371.231 184.824 371.123 184.131 371.154 183.468C371.2 182.821 371.462 182.065 372.095 181.604C372.759 181.125 373.53 181.125 374.04 181.141C375.491 181.203 376.417 181.895 376.417 181.895Z" fill="white"/>
<path d="M360.398 188.859C360.375 188.835 360.347 188.815 360.317 188.802C360.286 188.789 360.253 188.782 360.219 188.782H359.395L359.347 188.57H361.423C361.495 188.57 361.56 188.541 361.608 188.493H365.038C365.184 188.631 365.342 188.753 365.513 188.859H360.398ZM359.656 187.919V187.82H362.139C362.212 187.82 362.277 187.791 362.325 187.743H364.462C364.532 187.87 364.61 187.992 364.696 188.109H361.608C361.559 188.059 361.492 188.031 361.423 188.031H359.597L359.656 187.919ZM359.919 187.086L359.929 187.07H362.61C362.682 187.07 362.751 187.042 362.802 186.993H364.161C364.194 187.116 364.234 187.238 364.281 187.358H362.325C362.276 187.309 362.209 187.281 362.139 187.281H359.818L359.919 187.086ZM358.915 186.47L358.729 186.319H362.834C362.906 186.319 362.972 186.29 363.019 186.243H364.099L364.1 186.607H362.802C362.75 186.558 362.682 186.531 362.61 186.531H359.48L358.915 186.47ZM357.943 185.622L357.905 185.569H362.915C362.988 185.569 363.055 185.539 363.103 185.492H364.096L364.097 185.858H363.019C362.995 185.833 362.966 185.813 362.934 185.8C362.903 185.787 362.868 185.78 362.834 185.78H358.135L357.943 185.622ZM357.603 184.96L357.557 184.819H358.25L358.313 184.897L358.385 185.029H357.661L357.603 184.96ZM359.641 184.236L359.672 184.068H362.613C362.687 184.068 362.754 184.039 362.803 183.991H364.092L364.093 184.356H363.019C362.968 184.307 362.901 184.279 362.83 184.279H359.562L359.641 184.236ZM360.042 183.449L360.102 183.317H362.135C362.209 183.317 362.275 183.289 362.324 183.241H364.09L364.091 183.606H362.803C362.752 183.557 362.684 183.529 362.614 183.529H359.983L360.042 183.449ZM358.653 182.602L358.679 182.568H359.046L359.114 182.779H358.716L358.653 182.602ZM358.36 181.817H358.542L358.571 182.028H358.402L358.36 181.817ZM360.394 181.74H364.085L364.087 182.106H361.606C361.556 182.056 361.489 182.028 361.418 182.028H359.097L359.09 181.817H360.206C360.241 181.817 360.275 181.81 360.308 181.797C360.34 181.784 360.369 181.764 360.394 181.74ZM364.088 182.856H362.324C362.274 182.806 362.206 182.779 362.135 182.779H359.44V182.568H361.418C361.489 182.568 361.556 182.54 361.606 182.49H364.088L364.088 182.856ZM364.095 185.107H363.103C363.078 185.082 363.049 185.063 363.016 185.049C362.984 185.036 362.95 185.029 362.915 185.029H358.882L358.869 184.897L358.911 184.819H362.83C362.903 184.819 362.97 184.789 363.019 184.742H364.094L364.095 185.107ZM368.838 181.354V186.269C368.838 186.485 368.607 187.472 367.573 187.472C366.524 187.472 366.214 186.531 366.214 186.285V181.354H364.084V181.355H360.394C360.344 181.305 360.276 181.278 360.206 181.277H357.752C357.633 181.277 357.533 181.355 357.496 181.461L357.48 181.462C357.48 181.462 357.202 181.538 357.141 181.693C357.109 181.77 357.248 181.892 357.248 181.892L357.026 182.028H356.54C356.49 182.028 356.441 182.042 356.399 182.068C356.356 182.094 356.322 182.131 356.299 182.175C356.277 182.22 356.267 182.269 356.271 182.319C356.275 182.368 356.293 182.416 356.322 182.456V182.602L356.198 182.779H355.822C355.786 182.779 355.751 182.786 355.719 182.799C355.686 182.813 355.656 182.833 355.631 182.858C355.606 182.883 355.586 182.913 355.573 182.945C355.559 182.978 355.552 183.013 355.552 183.049C355.552 183.084 355.559 183.119 355.573 183.152C355.586 183.184 355.606 183.214 355.631 183.239C355.656 183.264 355.686 183.284 355.719 183.297C355.751 183.311 355.786 183.318 355.822 183.317H355.921L355.86 183.529H355.344C355.309 183.529 355.273 183.536 355.241 183.549C355.208 183.563 355.178 183.583 355.153 183.608C355.128 183.633 355.108 183.662 355.094 183.695C355.081 183.728 355.074 183.763 355.074 183.798C355.074 183.834 355.081 183.869 355.094 183.901C355.108 183.934 355.128 183.964 355.153 183.989C355.178 184.014 355.208 184.034 355.241 184.048C355.273 184.061 355.309 184.068 355.344 184.068H356.052L355.95 184.279H355.128C355.092 184.279 355.057 184.286 355.024 184.3C354.992 184.314 354.962 184.333 354.937 184.358C354.912 184.384 354.892 184.413 354.878 184.446C354.865 184.479 354.858 184.514 354.858 184.549C354.858 184.585 354.865 184.62 354.878 184.652C354.892 184.685 354.912 184.715 354.937 184.74C354.962 184.765 354.992 184.785 355.024 184.798C355.057 184.812 355.092 184.819 355.128 184.819H356.245L356.261 184.851L356.403 185.029H355.043C354.971 185.029 354.902 185.058 354.852 185.108C354.801 185.159 354.772 185.228 354.772 185.299C354.772 185.371 354.801 185.439 354.852 185.49C354.902 185.541 354.971 185.569 355.043 185.569H356.852L356.909 185.668L357.209 185.78H355.124C354.977 185.78 354.857 185.901 354.857 186.05C354.857 186.199 354.977 186.319 355.124 186.319H357.713L357.722 186.531H355.347C355.196 186.531 355.074 186.651 355.074 186.8C355.074 186.949 355.196 187.07 355.347 187.07H357.606L357.655 187.281H355.819C355.671 187.281 355.553 187.402 355.553 187.551C355.553 187.699 355.671 187.82 355.819 187.82H357.992L358.114 188.031H356.535C356.389 188.031 356.27 188.152 356.27 188.301C356.27 188.45 356.389 188.57 356.535 188.57H358.466L358.58 188.782H357.739C357.597 188.782 357.482 188.902 357.482 189.051C357.482 189.2 357.597 189.321 357.739 189.321H360.219C360.289 189.321 360.352 189.291 360.398 189.244H366.449C366.777 189.325 367.149 189.371 367.573 189.366C370.737 189.32 371.015 186.747 371.015 186.624V181.354H368.838ZM377.371 189.937H379.81L381.2 192.017L382.543 189.937H384.904L382.203 193.944V197.795H380.073V193.989L377.371 189.937ZM375.18 194.837L375.952 192.634L376.723 194.837H375.18ZM368.419 195.993V191.678C368.419 191.678 371.044 191.138 371.044 193.79C371.044 196.563 368.419 195.993 368.419 195.993ZM362.149 196.031C360.924 196.031 359.93 195.083 359.93 193.912C359.93 192.742 360.924 191.793 362.149 191.793C363.374 191.793 364.368 192.742 364.368 193.912C364.368 195.083 363.374 196.031 362.149 196.031ZM376.986 189.937H374.902L373.109 194.622C373.15 194.355 373.173 194.07 373.173 193.758C373.173 190.368 370.133 189.937 369.855 189.937H366.228V192.572C365.658 190.955 364.056 189.791 362.169 189.791C360.785 189.791 359.556 190.416 358.773 191.386V189.937H353.571V191.755H355.068V197.795H357.198V191.709H358.537C358.125 192.337 357.885 193.079 357.885 193.874C357.885 196.13 359.802 197.958 362.169 197.958C364.056 197.958 365.658 196.793 366.228 195.176V197.795H369.701C369.842 197.795 371.505 197.664 372.477 196.27L371.892 197.795H374.022L374.593 196.409H377.218L377.727 197.795H379.919L376.986 189.937ZM383.567 197.187C383.625 197.187 383.658 197.176 383.658 197.11C383.658 197.049 383.592 197.044 383.544 197.044H383.454V197.187H383.567ZM383.454 197.539H383.327V196.943H383.55C383.704 196.943 383.795 196.987 383.795 197.123C383.795 197.233 383.73 197.272 383.651 197.279L383.803 197.539H383.652L383.515 197.289H383.454V197.539H383.454ZM383.547 196.817C383.327 196.817 383.15 196.987 383.15 197.242C383.15 197.495 383.325 197.666 383.544 197.666H383.547V197.668C383.761 197.668 383.943 197.497 383.943 197.242C383.943 196.987 383.761 196.817 383.547 196.817ZM383.547 197.795C383.252 197.795 382.989 197.592 382.989 197.242C382.989 196.892 383.252 196.688 383.547 196.688C383.84 196.688 384.103 196.892 384.103 197.242C384.103 197.592 383.84 197.795 383.547 197.795Z" fill="white"/>
<circle cx="406.96" cy="95.2585" r="22.6335" fill="black"/>
<path d="M411.745 83.9236C411.546 83.9333 411.353 83.9843 411.167 84.1044C411.934 84.2592 412.833 84.3632 413.317 85.0685C413.56 85.3285 413.484 85.7281 413.242 85.9564C412.783 86.5082 411.995 86.6814 411.321 86.5051C409.036 85.9609 406.875 84.9029 404.527 84.6277C403.27 84.4602 402.04 85.0704 401.173 85.9533C400.372 86.7639 400.081 87.9943 400.239 89.1055C400.416 89.9846 401.062 90.8979 401.996 91.0273C401.443 90.421 401.338 89.3681 401.912 88.7377C402.236 88.3317 402.813 88.2759 403.292 88.3508C405.111 88.692 406.884 89.2444 408.699 89.6161C409.715 89.8952 410.719 90.2282 411.758 90.4184C411.777 91.6705 411.777 92.9212 411.758 94.1732C411.087 94.6781 410.447 95.2217 409.79 95.743C410.43 96.2263 411.09 96.6792 411.752 97.1321C411.794 98.9029 411.745 100.673 411.777 102.444C410.694 103.288 409.243 103.425 407.926 103.268C406.526 103.19 405.284 102.349 404.367 101.328C405.904 100.501 407.47 99.7205 409.042 98.962C409.097 96.1699 409.052 93.3766 409.067 90.5833C407.102 91.4142 405.158 92.2895 403.2 93.1331C403.766 91.673 404.917 90.4901 406.291 89.7874C405.932 89.8089 405.556 89.7823 405.222 89.9396C402.652 90.9633 400.533 93.1635 399.736 95.8477C399.203 97.5526 399.375 99.4165 399.953 101.083C400.67 102.938 401.996 104.58 403.754 105.517C404.741 106.032 405.804 106.514 406.935 106.529C409.278 106.725 411.743 105.834 413.323 104.055C414.014 103.308 414.362 102.334 414.704 101.391C415.021 100.463 415.164 99.4744 415.131 98.4925C414.373 100.01 413.364 101.435 411.987 102.441C411.996 100.676 411.984 98.9124 411.99 97.1479C412.589 96.6874 413.19 96.2276 413.77 95.743C413.175 95.2115 412.584 94.6807 411.99 94.1479C411.993 92.9073 411.988 91.6641 411.99 90.4248C413.33 90.3537 414.871 89.6408 415.232 88.2239C415.483 87.2992 415.615 86.2038 415.052 85.3666C414.536 84.7729 413.865 84.2573 413.078 84.1139C412.642 84.0755 412.183 83.9026 411.745 83.9236ZM405.48 92.4322C405.475 95.1215 405.495 97.8107 405.47 100.5C405.025 100.676 404.587 100.869 404.15 101.064C403.343 99.8861 402.841 98.4989 402.609 97.0908C402.547 95.9022 402.765 94.6984 403.175 93.5834C403.95 93.2117 404.708 92.8102 405.48 92.4322Z" fill="white"/>
<circle cx="154.691" cy="31.6009" r="23.105" fill="#303030"/>
<path d="M170.731 33.3911C169.818 33.4378 168.926 32.62 168.932 31.6007C168.938 30.5113 169.751 29.7899 170.742 29.7928C171.789 29.7986 172.533 30.5901 172.544 31.5802C172.556 32.5908 171.652 33.4495 170.731 33.3911Z" fill="#FF7A08"/>
<path d="M138.636 29.8122C139.592 29.7421 140.437 30.6446 140.437 31.588C140.437 32.6657 139.499 33.4076 138.656 33.4047C137.589 33.4017 136.834 32.508 136.837 31.5968C136.843 30.6826 137.612 29.7568 138.636 29.8122Z" fill="#FF7A08"/>
<path d="M171.847 35.7624C171.844 36.6766 171.113 37.4272 170.209 37.4184C169.27 37.4097 168.526 36.7437 168.532 35.7741C168.538 34.7431 169.319 34.0859 170.185 34.0976C171.305 34.1093 171.856 34.9972 171.847 35.7624Z" fill="#FF7A08"/>
<path d="M140.828 35.7973C140.872 36.6998 140.02 37.4329 139.16 37.4212C138.262 37.4124 137.51 36.6239 137.53 35.7184C137.548 34.9591 138.148 34.1004 139.181 34.0975C140.169 34.0946 140.883 34.8919 140.828 35.7973Z" fill="#FF7A08"/>
<path d="M170.171 29.0826C169.43 29.141 168.532 28.5189 168.532 27.4353C168.532 26.4043 169.351 25.7734 170.238 25.7851C171.15 25.7968 171.871 26.6204 171.853 27.4733C171.833 28.3582 171.04 29.1497 170.171 29.0826Z" fill="#FF7A08"/>
<path d="M139.189 29.0775C138.262 29.1184 137.533 28.324 137.533 27.4244C137.533 26.5044 138.317 25.7801 139.178 25.7772C140.119 25.7742 140.854 26.6125 140.839 27.4449C140.825 28.2422 140.169 29.1213 139.189 29.0775Z" fill="#FF7A08"/>
<path d="M170.094 39.6271C170.091 40.4537 169.476 41.14 168.572 41.1342C167.703 41.1283 167.079 40.4975 167.076 39.6271C167.074 38.8152 167.648 38.1317 168.566 38.1171C169.508 38.1054 170.103 38.8969 170.094 39.6271Z" fill="#FF7A08"/>
<path d="M168.602 25.0467C167.771 25.1109 167.063 24.3837 167.074 23.5571C167.086 22.5349 167.929 22.0355 168.599 22.0471C169.416 22.0588 170.104 22.7423 170.098 23.5542C170.086 24.4888 169.287 25.108 168.602 25.0467Z" fill="#FF7A08"/>
<path d="M140.761 25.0465C139.968 25.0991 139.268 24.3222 139.286 23.5336C139.303 22.7596 139.936 22.0411 140.802 22.047C141.589 22.0528 142.3 22.707 142.292 23.5891C142.289 24.2638 141.7 25.0961 140.761 25.0465Z" fill="#FF7A08"/>
<path d="M142.287 39.6543C142.301 40.4282 141.642 41.1438 140.8 41.135C139.846 41.1263 139.269 40.3435 139.289 39.5812C139.307 38.8336 139.954 38.1151 140.8 38.1092C141.607 38.1034 142.336 38.8394 142.287 39.6543Z" fill="#FF7A08"/>
<path d="M143.184 35.1404C143.998 35.1959 144.584 35.7363 144.592 36.5599C144.601 37.3426 144.041 37.9647 143.193 37.9735C142.336 37.9822 141.758 37.3455 141.77 36.554C141.785 35.745 142.356 35.1872 143.184 35.1404Z" fill="#FF7A08"/>
<path d="M167.593 26.6177C167.616 27.3245 167.033 28.0342 166.164 28.0284C165.459 28.0225 164.765 27.4063 164.779 26.5943C164.794 25.8495 165.441 25.1953 166.19 25.207C167.021 25.2216 167.625 25.8992 167.593 26.6177Z" fill="#FF7A08"/>
<path d="M167.08 31.0622C166.421 31.1089 165.786 30.5481 165.786 29.7829C165.786 29.0703 166.357 28.4774 167.077 28.4803C167.789 28.4832 168.369 29.0089 168.389 29.7654C168.41 30.5364 167.751 31.106 167.08 31.0622Z" fill="#FF7A08"/>
<path d="M143.569 33.4499C143.631 34.0399 143.053 34.7321 142.286 34.7291C141.461 34.7262 140.966 34.0048 140.983 33.3973C141.001 32.7227 141.56 32.1268 142.286 32.121C143.085 32.1122 143.616 32.784 143.569 33.4499Z" fill="#FF7A08"/>
<path d="M164.491 25.0997C163.797 25.0968 163.214 24.5097 163.208 23.8146C163.202 23.137 163.835 22.4916 164.541 22.512C165.173 22.5295 165.812 23.0231 165.815 23.8059C165.821 24.5915 165.159 25.1464 164.491 25.0997Z" fill="#FF7A08"/>
<path d="M146.138 39.4025C146.176 40.1209 145.552 40.6934 144.846 40.6934C144.205 40.6934 143.558 40.1706 143.561 39.382C143.563 38.7628 144.007 38.1174 144.838 38.094C145.625 38.0736 146.205 38.7804 146.138 39.4025Z" fill="#FF7A08"/>
<path d="M166.04 21.4201C165.381 21.4639 164.824 20.8739 164.832 20.2314C164.841 19.5392 165.36 19.0047 166.048 19.0076C166.69 19.0106 167.226 19.5596 167.249 20.1964C167.27 20.7892 166.748 21.4639 166.04 21.4201Z" fill="#FF7A08"/>
<path d="M142.149 42.9633C142.125 42.2799 142.644 41.7366 143.364 41.7541C144.14 41.7717 144.566 42.4084 144.557 42.9808C144.548 43.562 144.134 44.1549 143.335 44.1783C142.598 44.1987 142.084 43.4949 142.149 42.9633Z" fill="#FF7A08"/>
<path d="M143.35 21.4172C142.703 21.4844 142.129 20.8301 142.137 20.2051C142.146 19.5421 142.712 19.0076 143.353 19.0076C144.006 19.0076 144.563 19.5684 144.557 20.2197C144.548 20.8506 144.032 21.461 143.35 21.4172Z" fill="#FF7A08"/>
<path d="M164.835 42.9435C164.78 42.4237 165.308 41.7344 166.016 41.7461C166.809 41.7607 167.244 42.3652 167.244 42.964C167.244 43.6474 166.722 44.1731 166.04 44.176C165.249 44.179 164.783 43.4955 164.835 42.9435Z" fill="#FF7A08"/>
<path d="M147.205 40.4901C147.834 40.4522 148.394 40.9516 148.388 41.6555C148.383 42.4002 147.799 42.8413 147.196 42.8296C146.485 42.8179 146.024 42.2863 146.027 41.6292C146.027 40.975 146.566 40.4522 147.205 40.4901Z" fill="#FF7A08"/>
<path d="M163.336 21.5225C163.377 22.0891 162.849 22.7112 162.146 22.6937C161.502 22.6762 160.986 22.1622 160.989 21.5108C160.992 20.8508 161.52 20.3397 162.187 20.3397C162.884 20.3426 163.386 20.9734 163.336 21.5225Z" fill="#FF7A08"/>
<path d="M142.242 28.9412C142.907 28.9704 143.411 29.429 143.423 30.1066C143.431 30.8075 142.959 31.307 142.233 31.307C141.554 31.307 141.084 30.8221 141.064 30.1708C141.041 29.4261 141.633 28.9675 142.242 28.9412Z" fill="#FF7A08"/>
<path d="M167.129 34.2192C166.406 34.2543 165.939 33.5767 165.945 33.0685C165.954 32.4289 166.49 31.8622 167.132 31.871C167.811 31.8827 168.295 32.4318 168.301 33.0393C168.31 33.6468 167.802 34.2572 167.129 34.2192Z" fill="#FF7A08"/>
<path d="M149.336 38.5578C149.327 39.2004 148.797 39.7261 148.149 39.6969C147.502 39.6706 147.001 39.2033 147.009 38.5023C147.018 37.9065 147.441 37.375 148.17 37.3633C148.829 37.3516 149.345 37.8919 149.336 38.5578Z" fill="#FF7A08"/>
<path d="M162.348 24.6471C162.377 25.3013 161.901 25.8183 161.208 25.8241C160.499 25.8299 160.041 25.2721 160.05 24.6558C160.059 24.0191 160.557 23.5197 161.187 23.4963C161.814 23.4788 162.394 24.0191 162.348 24.6471Z" fill="#FF7A08"/>
<path d="M158.765 21.9815C159.334 21.9757 159.762 22.4079 159.768 22.9716C159.774 23.582 159.205 24.023 158.719 23.9909C158.173 23.953 157.718 23.5149 157.73 22.9716C157.739 22.4517 158.153 21.9523 158.765 21.9815Z" fill="#FF7A08"/>
<path d="M147.356 36.1891C147.403 36.6447 146.939 37.1996 146.359 37.1967C145.79 37.1938 145.312 36.7323 145.333 36.1862C145.356 35.5816 145.77 35.1669 146.35 35.1639C146.959 35.1581 147.373 35.6488 147.356 36.1891Z" fill="#FF7A08"/>
<path d="M163.022 26.0087C163.608 26.0057 164.033 26.4292 164.033 27.0134C164.033 27.5917 163.605 28.0151 163.016 28.0122C162.459 28.0122 162.01 27.58 162.01 27.0221C162.013 26.3708 162.57 25.9532 163.022 26.0087Z" fill="#FF7A08"/>
<path d="M150.628 41.2147C150.048 41.2088 149.608 40.7503 149.619 40.1632C149.628 39.6346 150.086 39.1731 150.616 39.1877C151.29 39.2082 151.628 39.6813 151.646 40.1983C151.666 40.7649 151.185 41.2205 150.628 41.2147Z" fill="#FF7A08"/>
<path d="M147.651 17.6706C147.648 18.243 147.219 18.6753 146.659 18.6694C146.105 18.6665 145.654 18.2167 145.656 17.6676C145.656 17.1215 146.108 16.6746 146.665 16.6717C147.231 16.6717 147.654 17.101 147.651 17.6706Z" fill="#FF7A08"/>
<path d="M147.651 45.5028C147.692 46.0782 147.181 46.5163 146.686 46.528C146.135 46.5397 145.654 46.0636 145.656 45.5233C145.659 44.9538 146.082 44.5566 146.651 44.5244C147.196 44.4952 147.7 45.018 147.651 45.5028Z" fill="#FF7A08"/>
<path d="M162.712 44.5322C163.263 44.5293 163.709 44.9732 163.715 45.5252C163.721 46.0685 163.257 46.53 162.712 46.53C162.181 46.53 161.697 46.0626 161.703 45.5223C161.709 45.0346 162.114 44.503 162.712 44.5322Z" fill="#FF7A08"/>
<path d="M162.713 16.676C163.215 16.6614 163.699 17.0499 163.713 17.672C163.728 18.221 163.264 18.6737 162.716 18.6737C162.159 18.6737 161.681 18.2035 161.71 17.6457C161.745 17.0382 162.22 16.6614 162.713 16.676Z" fill="#FF7A08"/>
<path d="M150.06 44.1971C149.526 44.1971 149.103 43.7649 149.106 43.2304C149.109 42.7397 149.546 42.3192 150.054 42.3162C150.59 42.3133 151.03 42.7281 151.016 43.2713C151.001 43.8525 150.529 44.2147 150.06 44.1971Z" fill="#FF7A08"/>
<path d="M166.346 37.1923C165.844 37.201 165.383 36.7571 165.378 36.2606C165.369 35.7348 165.78 35.3318 166.308 35.3055C166.803 35.2821 167.299 35.6706 167.284 36.2372C167.27 36.8126 166.894 37.1397 166.346 37.1923Z" fill="#FF7A08"/>
<path d="M143.978 26.9537C143.975 27.4882 143.561 27.9 143.039 27.8942C142.508 27.8883 142.097 27.4707 142.097 26.9479C142.097 26.3667 142.639 25.9841 143.048 26.0045C143.587 26.0337 143.981 26.4105 143.978 26.9537Z" fill="#FF7A08"/>
<path d="M159.336 18.9947C159.8 18.9538 160.281 19.3919 160.252 19.9439C160.223 20.4696 159.814 20.8872 159.293 20.8756C158.803 20.8668 158.368 20.4199 158.365 19.9322C158.365 19.4766 158.741 18.9538 159.336 18.9947Z" fill="#FF7A08"/>
<path d="M152.672 39.3517C152.156 39.3517 151.78 38.9749 151.777 38.4521C151.774 37.9556 152.182 37.5409 152.675 37.535C153.162 37.5292 153.599 37.9527 153.59 38.4375C153.579 38.9691 153.214 39.3663 152.672 39.3517Z" fill="#FF7A08"/>
<path d="M155.8 24.7243C155.806 24.2278 156.223 23.7897 156.709 23.8218C157.281 23.8598 157.605 24.2336 157.61 24.7681C157.619 25.2354 157.179 25.6589 156.709 25.6618C156.211 25.6647 155.794 25.2383 155.8 24.7243Z" fill="#FF7A08"/>
<path d="M145.342 34.2736C144.866 34.2736 144.441 33.8559 144.435 33.3915C144.432 32.8833 144.855 32.4511 145.35 32.4569C145.837 32.4627 146.251 32.8862 146.246 33.3798C146.246 33.891 145.858 34.2736 145.342 34.2736Z" fill="#FF7A08"/>
<path d="M155.904 23.0471C155.409 23.0529 154.986 22.6411 154.986 22.1563C154.986 21.6598 155.391 21.2392 155.878 21.2304C156.374 21.2217 156.797 21.651 156.797 22.1592C156.799 22.6294 156.382 23.0412 155.904 23.0471Z" fill="#FF7A08"/>
<path d="M153.513 40.1533C153.915 40.0978 154.385 40.5096 154.388 41.0178C154.391 41.5902 153.918 41.9612 153.469 41.9349C152.947 41.9028 152.58 41.5464 152.589 41.0207C152.595 40.5038 152.977 40.1474 153.513 40.1533Z" fill="#FF7A08"/>
<path d="M164.914 29.8203C164.911 30.3431 164.538 30.7111 164.013 30.7053C163.509 30.6994 163.142 30.3256 163.142 29.8174C163.142 29.2946 163.518 28.9266 164.043 28.9295C164.547 28.9354 164.917 29.3121 164.914 29.8203Z" fill="#FF7A08"/>
<path d="M154.902 39.5155C154.447 39.5155 154.112 39.1825 154.109 38.7298C154.106 38.2713 154.433 37.9383 154.888 37.9296C155.302 37.9237 155.689 38.3063 155.689 38.724C155.689 39.1825 155.357 39.5155 154.902 39.5155Z" fill="#FF7A08"/>
<path d="M154.492 23.6795C154.952 23.6853 155.288 24.0153 155.282 24.4593C155.279 24.8828 154.894 25.2771 154.483 25.2595C154.06 25.242 153.678 24.8536 153.69 24.4505C153.704 24.0679 154.043 23.6298 154.492 23.6795Z" fill="#FF7A08"/>
<path d="M159.492 25.6909C159.492 26.1611 159.171 26.4999 158.725 26.5028C158.296 26.5028 157.897 26.126 157.914 25.7084C157.932 25.2878 158.276 24.9169 158.725 24.914C159.136 24.911 159.541 25.2936 159.492 25.6909Z" fill="#FF7A08"/>
<path d="M151.441 37.4945C151.441 37.956 151.102 38.3065 150.662 38.2977C150.242 38.2919 149.857 37.9297 149.866 37.5208C149.875 37.0798 150.19 36.7089 150.648 36.7147C151.105 36.7176 151.441 37.0418 151.441 37.4945Z" fill="#FF7A08"/>
<path d="M150.519 46.3397C150.966 46.3368 151.304 46.658 151.321 47.0874C151.339 47.4787 151.044 47.8876 150.546 47.9022C150.149 47.9139 149.761 47.6306 149.741 47.1137C149.726 46.6902 150.082 46.3455 150.519 46.3397Z" fill="#FF7A08"/>
<path d="M158.068 16.0579C158.068 15.614 158.4 15.2723 158.832 15.2694C159.269 15.2664 159.625 15.6257 159.622 16.0667C159.619 16.5106 159.266 16.8582 158.823 16.8494C158.394 16.8465 158.068 16.5019 158.068 16.0579Z" fill="#FF7A08"/>
<path d="M151.321 16.0506C151.327 16.4887 150.971 16.8508 150.534 16.8538C150.129 16.8538 149.752 16.4887 149.741 16.0769C149.729 15.6797 150.108 15.2824 150.511 15.2737C150.945 15.2591 151.312 15.6154 151.321 16.0506Z" fill="#FF7A08"/>
<path d="M144.603 24.8702C144.172 24.8643 143.839 24.5168 143.848 24.0787C143.857 23.6494 144.204 23.3222 144.647 23.3281C145.09 23.3339 145.431 23.6727 145.425 24.105C145.419 24.5518 145.072 24.876 144.603 24.8702Z" fill="#FF7A08"/>
<path d="M164.741 39.868C164.31 39.8709 163.983 39.535 163.957 39.0999C163.937 38.7465 164.243 38.32 164.709 38.2938C165.132 38.2704 165.549 38.6705 165.531 39.0999C165.517 39.5029 165.176 39.8768 164.741 39.868Z" fill="#FF7A08"/>
<path d="M156.141 19.8979C155.713 19.9008 155.36 19.5532 155.36 19.1268C155.36 18.6829 155.683 18.3791 156.132 18.3528C156.578 18.3236 156.94 18.7413 156.925 19.1356C156.908 19.5707 156.584 19.8949 156.141 19.8979Z" fill="#FF7A08"/>
<path d="M159.608 47.1273C159.602 47.5917 159.302 47.8779 158.829 47.8779C158.354 47.875 158.06 47.5654 158.065 47.0835C158.074 46.6425 158.407 46.3417 158.859 46.3358C159.211 46.33 159.66 46.6717 159.608 47.1273Z" fill="#FF7A08"/>
<path d="M153.247 43.2967C153.696 43.2996 154.011 43.6238 154.005 44.0678C154 44.5205 153.659 44.8447 153.201 44.8359C152.763 44.8271 152.46 44.4971 152.466 44.0386C152.475 43.58 152.775 43.2938 153.247 43.2967Z" fill="#FF7A08"/>
<path d="M155.409 47.6714C155.409 48.1066 155.112 48.4133 154.686 48.4074C154.278 48.4045 153.94 48.0657 153.942 47.6685C153.945 47.28 154.284 46.9442 154.668 46.9412C155.085 46.9383 155.406 47.2567 155.409 47.6714Z" fill="#FF7A08"/>
<path d="M155.409 15.5114C155.444 15.932 155.088 16.2328 154.712 16.2591C154.327 16.2854 153.934 15.9116 153.948 15.5319C153.963 15.1434 154.26 14.7842 154.692 14.7929C155.056 14.8017 155.444 15.1084 155.409 15.5114Z" fill="#FF7A08"/>
<path d="M152.934 22.9476C152.596 22.9885 152.217 22.6818 152.199 22.2466C152.185 21.867 152.535 21.5282 152.925 21.5311C153.313 21.534 153.651 21.867 153.643 22.2583C153.634 22.5708 153.409 22.9534 152.934 22.9476Z" fill="#FF7A08"/>
<path d="M164.114 33.5163C163.741 33.5484 163.388 33.2009 163.4 32.7949C163.412 32.351 163.782 32.0823 164.108 32.0939C164.496 32.1085 164.84 32.4269 164.843 32.8037C164.843 33.1892 164.508 33.5163 164.114 33.5163Z" fill="#FF7A08"/>
<path d="M157.158 40.9472C157.161 41.3357 156.852 41.6803 156.482 41.6774C156.14 41.6745 155.738 41.435 155.744 40.9443C155.747 40.5588 156.094 40.2054 156.476 40.2317C156.805 40.255 157.17 40.4682 157.158 40.9472Z" fill="#FF7A08"/>
<path d="M145.962 30.3876C145.962 30.8082 145.659 31.1178 145.254 31.1148C144.884 31.1119 144.554 30.7761 144.548 30.3993C144.545 30.005 144.872 29.6604 145.271 29.672C145.653 29.6808 145.997 30.0167 145.962 30.3876Z" fill="#FF7A08"/>
<path d="M149.036 35.2459C149.447 35.243 149.75 35.5468 149.747 35.9615C149.744 36.3616 149.45 36.6566 149.05 36.6595C148.639 36.6625 148.333 36.3587 148.339 35.9469C148.339 35.5497 148.639 35.2489 149.036 35.2459Z" fill="#FF7A08"/>
<path d="M157.17 35.4841C157.581 35.4841 157.858 35.7674 157.855 36.1851C157.849 36.5881 157.555 36.889 157.158 36.8948C156.782 36.9007 156.441 36.5473 156.447 36.1588C156.453 35.7645 156.753 35.4841 157.17 35.4841Z" fill="#FF7A08"/>
<path d="M152.231 27.733C151.858 27.7389 151.496 27.4118 151.502 27.0438C151.508 26.6261 151.863 26.3253 152.193 26.3165C152.598 26.3048 152.913 26.632 152.936 27.0204C152.96 27.3855 152.607 27.7272 152.231 27.733Z" fill="#FF7A08"/>
<path d="M156.383 38.3062C156.386 37.9178 156.704 37.6053 157.089 37.6053C157.474 37.6053 157.794 37.9266 157.792 38.3121C157.789 38.7443 157.477 39.0218 157.098 39.0276C156.687 39.0335 156.348 38.683 156.383 38.3062Z" fill="#FF7A08"/>
<path d="M151.598 24.8755C151.595 24.452 151.89 24.1512 152.301 24.1483C152.668 24.1483 153.01 24.4929 153.007 24.8609C153.004 25.2581 152.701 25.5589 152.301 25.5589C151.884 25.5589 151.601 25.2844 151.598 24.8755Z" fill="#FF7A08"/>
<path d="M159.645 27.2321C159.645 26.8203 159.925 26.5399 160.339 26.5428C160.758 26.5457 161.062 26.8466 161.053 27.2554C161.047 27.6176 160.697 27.9593 160.327 27.9476C159.989 27.936 159.63 27.6906 159.645 27.2321Z" fill="#FF7A08"/>
<path d="M154.992 36.6816C154.995 36.3749 155.301 36.077 155.622 36.0741C155.937 36.0711 156.263 36.3924 156.263 36.7108C156.263 37.0408 155.96 37.3445 155.631 37.3475C155.29 37.3445 154.989 37.032 154.992 36.6816Z" fill="#FF7A08"/>
<path d="M153.808 25.8366C154.132 25.8541 154.423 26.1608 154.388 26.4762C154.351 26.8267 154.114 27.1042 153.706 27.075C153.371 27.0487 153.103 26.7624 153.123 26.4382C153.149 26.079 153.444 25.8191 153.808 25.8366Z" fill="#FF7A08"/>
<path d="M150.918 28.594C150.539 28.5911 150.309 28.3516 150.315 27.9632C150.321 27.6039 150.589 27.344 150.953 27.3557C151.277 27.3644 151.557 27.6565 151.554 27.9865C151.545 28.3575 151.295 28.5999 150.918 28.594Z" fill="#FF7A08"/>
<path d="M158.456 35.789C158.074 35.789 157.832 35.5495 157.841 35.1727C157.846 34.8251 158.115 34.5506 158.441 34.5506C158.8 34.5506 159.083 34.8427 159.077 35.2048C159.071 35.5582 158.826 35.789 158.456 35.789Z" fill="#FF7A08"/>
<path d="M147.531 21.7704C147.526 22.1179 147.275 22.3574 146.916 22.3574C146.569 22.3574 146.304 22.1004 146.301 21.7616C146.298 21.4257 146.598 21.1191 146.925 21.1249C147.257 21.1307 147.537 21.4257 147.531 21.7704Z" fill="#FF7A08"/>
<path d="M153.479 19.1787C153.482 19.538 153.237 19.7833 152.881 19.7833C152.534 19.7833 152.243 19.4942 152.249 19.1583C152.254 18.8662 152.555 18.5625 152.852 18.5508C153.187 18.542 153.479 18.8312 153.479 19.1787Z" fill="#FF7A08"/>
<path d="M162.45 42.0498C162.092 42.0469 161.876 41.8044 161.853 41.4394C161.835 41.1444 162.118 40.8289 162.465 40.8319C162.797 40.8348 163.077 41.1239 163.074 41.454C163.071 41.7869 162.797 42.0498 162.45 42.0498Z" fill="#FF7A08"/>
<path d="M157.1 44.0107C157.1 44.3729 156.858 44.6124 156.494 44.6094C156.147 44.6065 155.911 44.3729 155.908 44.0224C155.905 43.6748 156.165 43.3974 156.5 43.3944C156.832 43.3886 157.098 43.6631 157.1 44.0107Z" fill="#FF7A08"/>
<path d="M163.859 35.6582C163.859 35.9941 163.605 36.2482 163.27 36.2452C162.975 36.2423 162.692 35.9561 162.692 35.6611C162.692 35.3632 162.975 35.077 163.27 35.0741C163.611 35.0711 163.859 35.3165 163.859 35.6582Z" fill="#FF7A08"/>
<path d="M159.264 40.5167C158.935 40.5197 158.681 40.2889 158.666 39.9706C158.652 39.6639 158.964 39.3485 159.276 39.3514C159.561 39.3543 159.836 39.6493 159.836 39.9501C159.836 40.2714 159.594 40.5109 159.264 40.5167Z" fill="#FF7A08"/>
<path d="M146.66 27.512C146.68 27.8654 146.424 28.102 146.088 28.1166C145.788 28.1283 145.505 27.8333 145.505 27.5383C145.505 27.2287 145.768 26.9629 146.08 26.9571C146.406 26.9483 146.657 27.1878 146.66 27.512Z" fill="#FF7A08"/>
<path d="M150.686 23.2529C150.727 23.5742 150.359 23.8312 150.111 23.8166C149.791 23.7962 149.555 23.5596 149.557 23.2325C149.56 22.8966 149.797 22.6513 150.117 22.6483C150.447 22.6454 150.689 22.9024 150.686 23.2529Z" fill="#FF7A08"/>
<path d="M159.695 42.5401C159.989 42.5576 160.243 42.8322 160.234 43.1213C160.223 43.4543 159.957 43.685 159.607 43.6646C159.295 43.647 159.053 43.3871 159.071 43.0892C159.088 42.7562 159.354 42.5197 159.695 42.5401Z" fill="#FF7A08"/>
<path d="M150.304 20.0611C150.312 20.3648 150.038 20.6481 149.738 20.6511C149.432 20.654 149.161 20.3911 149.152 20.0815C149.143 19.7749 149.4 19.5062 149.715 19.4886C150.006 19.474 150.295 19.7573 150.304 20.0611Z" fill="#FF7A08"/>
<path d="M154.006 37.3108C153.677 37.3138 153.423 37.0684 153.429 36.7472C153.432 36.4668 153.721 36.1922 154.006 36.1952C154.292 36.1981 154.575 36.4843 154.572 36.7618C154.563 37.0743 154.324 37.3079 154.006 37.3108Z" fill="#FF7A08"/>
<path d="M149.974 29.8824C149.671 29.8765 149.435 29.6224 149.446 29.3099C149.455 29.0003 149.709 28.7608 150.015 28.7696C150.327 28.7783 150.566 29.0266 150.56 29.3333C150.557 29.6545 150.307 29.8882 149.974 29.8824Z" fill="#FF7A08"/>
<path d="M161.415 28.6483C161.733 28.6512 161.969 28.8878 161.975 29.2032C161.977 29.4807 161.692 29.764 161.409 29.7669C161.126 29.7698 160.835 29.4865 160.835 29.209C160.832 28.8878 161.082 28.6454 161.415 28.6483Z" fill="#FF7A08"/>
<path d="M148.523 34.0152C148.517 34.3248 148.272 34.5643 147.96 34.5614C147.651 34.5584 147.409 34.3131 147.409 34.0035C147.409 33.6822 147.668 33.4311 147.989 33.4457C148.298 33.4574 148.531 33.7027 148.523 34.0152Z" fill="#FF7A08"/>
<path d="M159.38 34.394C159.038 34.397 158.831 34.1984 158.829 33.8625C158.826 33.5412 159.053 33.29 159.353 33.2813C159.639 33.2725 159.931 33.5383 159.939 33.8187C159.954 34.137 159.706 34.3911 159.38 34.394Z" fill="#FF7A08"/>
<path d="M159.602 37.2749C159.602 37.5787 159.348 37.8328 159.048 37.8328C158.75 37.8357 158.479 37.5495 158.485 37.2428C158.491 36.9449 158.747 36.7258 159.059 36.7112C159.345 36.6966 159.628 37.0179 159.602 37.2749Z" fill="#FF7A08"/>
<path d="M149.788 25.9455C149.785 25.633 150.016 25.3877 150.322 25.3789C150.628 25.3702 150.908 25.6389 150.905 25.9426C150.902 26.2347 150.634 26.4975 150.342 26.4946C150.03 26.4946 149.791 26.2551 149.788 25.9455Z" fill="#FF7A08"/>
<path d="M155.928 26.4405C155.922 26.7559 155.689 26.9575 155.359 26.9721C155.053 26.9867 154.823 26.7121 154.814 26.4084C154.808 26.1484 155.1 25.8622 155.365 25.8593C155.689 25.8534 155.934 26.1105 155.928 26.4405Z" fill="#FF7A08"/>
<path d="M157.438 26.8851C157.441 27.1742 157.237 27.3787 156.948 27.3816C156.657 27.3845 156.444 27.1801 156.447 26.8997C156.45 26.6427 156.674 26.409 156.919 26.4061C157.19 26.4032 157.435 26.6281 157.438 26.8851Z" fill="#FF7A08"/>
<path d="M152.418 35.7851C152.68 35.7763 152.931 36.0129 152.937 36.2699C152.942 36.5153 152.712 36.7635 152.473 36.7752C152.173 36.7898 151.954 36.5824 151.951 36.2816C151.951 36.0246 152.167 35.7938 152.418 35.7851Z" fill="#FF7A08"/>
<path d="M149.543 31.4079C149.301 31.4108 149.053 31.1743 149.041 30.9318C149.03 30.6807 149.278 30.4178 149.531 30.4178C149.794 30.4149 150.036 30.6602 150.03 30.9202C150.027 31.1626 149.785 31.405 149.543 31.4079Z" fill="#FF7A08"/>
<path d="M159.843 32.7479C159.557 32.7479 159.359 32.5609 159.359 32.2893C159.359 32.0002 159.56 31.7957 159.849 31.7928C160.106 31.7899 160.348 32.0352 160.345 32.2952C160.339 32.558 160.132 32.7479 159.843 32.7479Z" fill="#FF7A08"/>
<path d="M161.838 30.9295C162.074 30.9325 162.276 31.1398 162.281 31.3822C162.287 31.6247 162.057 31.8612 161.824 31.8525C161.585 31.8437 161.345 31.6071 161.354 31.3822C161.363 31.1486 161.599 30.9266 161.838 30.9295Z" fill="#FF7A08"/>
<path d="M148.808 28.0168C148.552 28.0168 148.336 27.8065 148.342 27.5641C148.347 27.3246 148.578 27.0997 148.814 27.1055C149.038 27.1084 149.266 27.3333 149.266 27.5524C149.269 27.7977 149.053 28.0168 148.808 28.0168Z" fill="#FF7A08"/>
<path d="M160.602 35.1954C160.847 35.2013 161.04 35.3943 161.042 35.6399C161.045 35.9031 160.826 36.1019 160.543 36.0902C160.307 36.0815 160.111 35.8651 160.12 35.6311C160.129 35.3767 160.342 35.1866 160.602 35.1954Z" fill="#FF7A08"/>
<path d="M147.111 31.8029C147.108 31.5631 147.306 31.3526 147.546 31.3438C147.794 31.3351 148.004 31.5456 148.004 31.8059C148.004 32.0603 147.823 32.2562 147.575 32.265C147.33 32.2766 147.114 32.0603 147.111 31.8029Z" fill="#FF7A08"/>
<path d="M147.761 25.4975C147.513 25.4945 147.335 25.3045 147.341 25.0442C147.347 24.8103 147.563 24.6085 147.796 24.6173C148.015 24.6261 148.213 24.8424 148.211 25.0618C148.211 25.3015 148.006 25.5004 147.761 25.4975Z" fill="#FF7A08"/>
<path d="M161.6 37.6991C161.848 37.6961 162.037 37.8628 162.046 38.0997C162.058 38.3424 161.859 38.5588 161.62 38.5705C161.404 38.5793 161.179 38.3746 161.17 38.1552C161.159 37.9184 161.363 37.702 161.6 37.6991Z" fill="#FF7A08"/>
<path d="M159.794 30.2421C160.019 30.2363 160.235 30.441 160.235 30.6574C160.235 30.8796 160.028 31.0989 159.818 31.0989C159.599 31.0989 159.377 30.8913 159.374 30.6808C159.371 30.4527 159.57 30.2451 159.794 30.2421Z" fill="#FF7A08"/>
<path d="M149.155 32.5332C149.152 32.3139 149.36 32.1092 149.587 32.1092C149.803 32.1092 149.981 32.2963 149.987 32.5274C149.993 32.7613 149.795 32.9748 149.579 32.9689C149.345 32.9631 149.158 32.773 149.155 32.5332Z" fill="#FF7A08"/>
<path d="M158.281 28.2444C158.053 28.2444 157.843 28.0339 157.849 27.8175C157.857 27.566 158.03 27.411 158.289 27.4139C158.523 27.4168 158.707 27.5952 158.707 27.8145C158.71 28.0455 158.511 28.2473 158.281 28.2444Z" fill="#FF7A08"/>
<path d="M151.527 35.3664C151.53 35.5974 151.334 35.7845 151.095 35.7845C150.876 35.7845 150.674 35.574 150.674 35.3488C150.677 35.1237 150.847 34.9628 151.092 34.957C151.334 34.9511 151.524 35.1324 151.527 35.3664Z" fill="#FF7A08"/>
<path d="M150.112 33.7264C150.322 33.7264 150.465 33.858 150.474 34.0597C150.479 34.2323 150.304 34.4253 150.132 34.434C149.954 34.4428 149.744 34.241 149.747 34.0685C149.755 33.8784 149.913 33.7264 150.112 33.7264Z" fill="#FF7A08"/>
<path d="M159.258 28.7614C159.474 28.7643 159.614 28.9164 159.605 29.1357C159.596 29.317 159.447 29.4661 159.272 29.4691C159.074 29.472 158.896 29.2995 158.901 29.1065C158.91 28.9164 159.071 28.7614 159.258 28.7614Z" fill="#FF7A08"/>
<path d="M161.873 33.634C161.868 33.8211 161.698 33.9819 161.511 33.9732C161.354 33.9673 161.182 33.786 161.179 33.6252C161.176 33.4439 161.345 33.2801 161.535 33.2772C161.722 33.2743 161.876 33.438 161.873 33.634Z" fill="#FF7A08"/>
<path d="M148.176 29.5935C148.171 29.7806 147.99 29.9444 147.809 29.9268C147.654 29.9122 147.517 29.7485 147.52 29.5789C147.52 29.3829 147.686 29.2192 147.87 29.2309C148.045 29.2455 148.182 29.4093 148.176 29.5935Z" fill="#FF7A08"/>
<mask id="mask0_20117_88988" style="mask-type:alpha" maskUnits="userSpaceOnUse" x="121" y="136" width="46" height="47">
<circle cx="143.845" cy="159.372" r="22.6335" fill="#FFC517"/>
</mask>
<g mask="url(#mask0_20117_88988)">
<rect x="111.837" y="159.367" width="22.6335" height="22.6335" transform="rotate(-45 111.837 159.367)" fill="#EB4335"/>
<rect x="127.841" y="175.371" width="22.6335" height="22.6335" transform="rotate(-45 127.841 175.371)" fill="#FBBC05"/>
<rect x="127.841" y="143.359" width="22.6335" height="22.6335" transform="rotate(-45 127.841 143.359)" fill="#4285F4"/>
<rect x="143.846" y="159.367" width="22.6335" height="22.6335" transform="rotate(-45 143.846 159.367)" fill="#34A853"/>
</g>
<circle opacity="0.3" cx="143.845" cy="159.372" r="22.6335" fill="white"/>
<path d="M152.201 163.415C152.198 163.803 151.876 164.116 151.479 164.116H136.214C135.816 164.118 135.492 163.805 135.489 163.415V148.764C135.492 148.376 135.814 148.062 136.211 148.062H151.476C151.874 148.061 152.198 148.374 152.201 148.764V163.415Z" fill="#0C9D58"/>
<path opacity="0.2" d="M152.201 151.827L146.479 151.108L152.201 152.61V151.827ZM144.122 148.825L135.456 152.61L145.033 149.201V149.192C144.883 148.845 144.477 148.682 144.122 148.825Z" fill="#004D40"/>
<path opacity="0.2" d="M151.479 148.062H136.214C135.816 148.061 135.492 148.374 135.489 148.764V148.921C135.492 148.533 135.814 148.22 136.211 148.22H151.476C151.874 148.218 152.198 148.531 152.201 148.921V148.764C152.198 148.376 151.876 148.062 151.479 148.062V148.062Z" fill="white"/>
<path d="M139.195 162.963C139.081 163.323 139.286 163.704 139.652 163.817L153.793 167.537C154.168 167.618 154.54 167.388 154.625 167.022L157.956 154.859C158.07 154.502 157.868 154.121 157.503 154.006L143.363 150.286C142.988 150.205 142.616 150.435 142.53 150.801L139.195 162.963Z" fill="#EA4335"/>
<path opacity="0.2" d="M154.772 159.203L155.516 163.623L154.772 166.339V159.203ZM146.545 151.289L147.212 151.465L147.626 154.192L146.545 151.289Z" fill="#3E2723"/>
<path opacity="0.2" d="M157.504 154.006L143.363 150.286C142.988 150.205 142.616 150.435 142.531 150.801L139.195 162.963C139.195 162.984 139.195 163.004 139.184 163.025L142.491 150.954C142.576 150.587 142.948 150.357 143.323 150.438L157.463 154.158C157.627 154.209 157.766 154.318 157.852 154.463C157.939 154.608 157.967 154.78 157.931 154.944L157.957 154.852C158.065 154.496 157.864 154.121 157.504 154.006H157.504Z" fill="white"/>
<path d="M150.332 161.479C150.477 161.827 150.307 162.224 149.952 162.368L135.029 167.681C134.663 167.794 134.272 167.597 134.154 167.239L129.751 155.405C129.607 155.057 129.777 154.661 130.132 154.517L145.055 149.205C145.422 149.089 145.815 149.286 145.934 149.645L150.332 161.479V161.479Z" fill="#FFC107"/>
<path opacity="0.2" d="M129.808 155.555C129.664 155.208 129.833 154.811 130.187 154.667L145.11 149.355C145.472 149.244 145.858 149.435 145.98 149.785L145.935 149.645C145.817 149.288 145.425 149.091 145.059 149.204L130.133 154.518C129.778 154.662 129.608 155.059 129.753 155.407L134.156 167.24V167.251L129.808 155.555Z" fill="white"/>
<path d="M154.048 154.191H133.641C133.241 154.191 132.918 154.508 132.918 154.899V169.987C132.918 170.378 133.241 170.695 133.641 170.695H154.048C154.447 170.695 154.771 170.378 154.771 169.987V154.899C154.771 154.508 154.447 154.191 154.048 154.191Z" fill="#4285F4"/>
<path d="M144.768 158.586H150.875C150.96 158.586 151.042 158.619 151.102 158.678C151.162 158.737 151.196 158.817 151.196 158.9V159.843C151.196 159.927 151.162 160.007 151.102 160.066C151.042 160.125 150.96 160.158 150.875 160.158H144.768V158.586H144.768ZM144.768 164.559H150.875C150.96 164.559 151.042 164.592 151.102 164.651C151.162 164.71 151.196 164.79 151.196 164.873V165.816C151.196 165.899 151.162 165.979 151.102 166.038C151.042 166.097 150.96 166.13 150.875 166.13H144.768V164.559H144.768ZM144.768 161.572H151.839C151.924 161.572 152.006 161.605 152.066 161.664C152.126 161.723 152.16 161.803 152.16 161.887V162.83C152.16 162.913 152.126 162.993 152.066 163.052C152.006 163.111 151.924 163.144 151.839 163.144H144.768V161.572Z" fill="white"/>
<path opacity="0.2" d="M154.048 170.539H133.641C133.242 170.538 132.918 170.222 132.918 169.832V169.989C132.918 170.379 133.242 170.696 133.641 170.696H154.048C154.447 170.696 154.77 170.379 154.771 169.989V169.832C154.77 170.222 154.447 170.538 154.048 170.539Z" fill="#1A237E"/>
<path opacity="0.2" d="M133.641 154.348H154.048C154.447 154.349 154.77 154.666 154.771 155.056V154.899C154.77 154.508 154.447 154.192 154.048 154.191H133.641C133.242 154.192 132.918 154.508 132.918 154.899V155.056C132.918 154.666 133.242 154.349 133.641 154.348Z" fill="white"/>
<path d="M139.306 161.73V163.144H141.385C141.213 164.009 140.437 164.634 139.306 164.634C138.019 164.634 136.976 163.614 136.976 162.355C136.976 161.097 138.019 160.076 139.306 160.076C139.859 160.066 140.393 160.271 140.792 160.645L141.893 159.569C141.194 158.925 140.266 158.573 139.306 158.586C138.798 158.584 138.295 158.681 137.825 158.869C137.356 159.058 136.929 159.336 136.569 159.686C136.21 160.036 135.924 160.453 135.729 160.912C135.535 161.37 135.434 161.862 135.434 162.358C135.434 162.855 135.535 163.347 135.729 163.805C135.924 164.264 136.21 164.68 136.569 165.031C136.929 165.381 137.356 165.659 137.825 165.848C138.295 166.036 138.798 166.133 139.306 166.131C141.533 166.131 143.001 164.6 143.001 162.445C143.001 162.205 142.98 161.966 142.94 161.73H139.306Z" fill="white"/>
<path opacity="0.2" d="M139.346 163.16V163.317H141.387C141.402 163.266 141.414 163.214 141.425 163.16H139.346H139.346Z" fill="#1A237E"/>
<path opacity="0.2" d="M139.345 166.146C137.246 166.146 135.532 164.504 135.489 162.452V162.531C135.489 164.614 137.215 166.303 139.345 166.303C141.572 166.303 143.041 164.772 143.041 162.617V162.567C142.988 164.665 141.535 166.146 139.345 166.146H139.345ZM140.825 160.66C140.427 160.288 139.896 160.085 139.345 160.094C138.074 160.114 137.055 161.13 137.059 162.373V162.452C137.096 161.24 138.101 160.271 139.34 160.251C139.891 160.242 140.423 160.445 140.82 160.817L142.001 159.662C141.974 159.637 141.944 159.615 141.915 159.59L140.82 160.66H140.825ZM151.196 160.016V159.859C151.196 159.942 151.162 160.022 151.102 160.081C151.042 160.14 150.96 160.173 150.875 160.173H144.768V160.33H150.875C150.96 160.33 151.042 160.297 151.102 160.238C151.162 160.179 151.196 160.099 151.196 160.016ZM150.875 166.146H144.768V166.303H150.875C150.96 166.303 151.042 166.27 151.102 166.211C151.162 166.152 151.196 166.072 151.196 165.988V165.831C151.196 165.915 151.162 165.995 151.102 166.053C151.042 166.112 150.96 166.146 150.875 166.146ZM151.839 163.159H144.769V163.316H151.839C151.924 163.316 152.006 163.283 152.066 163.224C152.126 163.165 152.16 163.085 152.16 163.002V162.845C152.16 162.928 152.126 163.008 152.066 163.067C152.006 163.126 151.924 163.159 151.839 163.159H151.839Z" fill="#1A237E"/>
<path d="M157.504 154.008L152.202 152.621V148.764C152.199 148.376 151.877 148.062 151.48 148.062H136.215C135.817 148.061 135.493 148.374 135.49 148.764V152.599L130.133 154.507C129.778 154.651 129.608 155.048 129.754 155.396L132.919 163.906V169.988C132.92 170.379 133.243 170.695 133.642 170.696H154.05C154.449 170.695 154.772 170.379 154.773 169.988V166.496L157.959 154.865C158.075 154.506 157.871 154.123 157.504 154.008Z" fill="url(#paint0_radial_20117_88988)"/>
<path d="M77.831 68.8488C77.831 83.9531 65.5865 96.1976 50.4822 96.1976C35.3779 96.1976 23.1334 83.9531 23.1334 68.8488C23.1334 53.7445 35.3779 41.5 50.4822 41.5C65.5865 41.5 77.831 53.7445 77.831 68.8488Z" fill="#C82636"/>
<path fill-rule="evenodd" clip-rule="evenodd" d="M43.667 73.0525C44.0114 73.018 44.2528 72.7423 44.2528 72.4326V63.6163C44.2528 60.3447 48.4575 58.7604 50.6976 62.5833C52.9725 66.4746 54.2819 68.7477 54.2819 68.7477V63.6163C54.2819 60.3447 58.487 58.7604 60.7273 62.5833C61.9278 64.6347 63.1226 66.6896 64.3116 68.7477V60.4136H69.3435V75.0154C69.3435 78.769 64.932 79.3544 63.1394 76.3584C62.0712 74.6022 59.3142 70.0563 59.3142 70.0563V75.0156C59.3483 78.7692 54.9368 79.3547 53.1101 76.3586C52.0419 74.6024 49.319 70.0565 49.319 70.0565V74.5334C49.319 76.841 47.9749 78.0463 45.8726 78.0463H41.0131C28.5711 78.0463 28.4677 60.4138 40.8407 60.4138H43.5979V65.4075H40.5648C35.4984 65.4075 34.9471 73.0529 40.9095 73.0529H43.667V73.0525Z" fill="white"/>
<path d="M66.5143 60.3516V74.6042C66.5143 75.4973 65.6699 75.7034 65.2313 75.0852C65.2313 75.0852 59.4905 65.7092 58.0383 63.2708C57.5991 62.6526 56.6875 62.8588 56.6875 63.7861V74.6042C56.6875 75.4973 55.8769 75.7034 55.438 75.0852C55.438 75.0852 49.6635 65.7092 48.2115 63.2708C47.7725 62.6526 46.8607 62.8588 46.8607 63.7861V74.5358C46.8607 75.0165 46.4891 75.4285 45.9827 75.4285H40.8831C32.2044 75.4285 32.4748 62.8588 40.6807 62.8588H43.8212" stroke="#C82636" stroke-miterlimit="2.613"/>
<defs>
<radialGradient id="paint0_radial_20117_88988" cx="0" cy="0" r="1" gradientUnits="userSpaceOnUse" gradientTransform="translate(134.892 149.897) scale(22.4959 22.0041)">
<stop stop-color="white" stop-opacity="0.1"/>
<stop offset="1" stop-color="white" stop-opacity="0"/>
</radialGradient>
</defs>
</svg>
