<svg data-v-0dd9719b="" version="1.0" xmlns="http://www.w3.org/2000/svg" xmlns:xlink="http://www.w3.org/1999/xlink"
    width="100%" height="100%" viewBox="0 0 340.000000 250.000000" preserveAspectRatio="xMidYMid meet"
    color-interpolation-filters="sRGB" style="margin: auto;">
    <rect data-v-0dd9719b="" x="0" y="0" width="100%" height="100%" fill="#168f78" fill-opacity="0" class="background">
    </rect>
    <!---->
    <g data-v-0dd9719b="" fill="#ffffff" class="endsvg" transform="translate(53.1199951171875,100.5899829864502)">
        <!---->
        <g class="tp-name">
            <g>
                <rect data-gra="graph-name-bg" stroke-width="2" class="i-icon-bg" stroke="rgb(255, 255, 255)" x="0"
                    y="0" width="233.760009765625" height="48.82003402709961" fill-opacity="0"></rect>
                <!---->
                <!---->
            </g>
            <g transform="translate(0,0)">
                <g data-gra="path-name-bg">
                    <g>
                        <rect data-gra="graph-name-bg" stroke-width="2" class="i-icon-bg" x="0" y="0"
                            width="109.69000244140625" height="48.82003402709961" fill-opacity="0"></rect>
                        <!---->
                        <!---->
                    </g>
                    <g transform="translate(5,5)">
                        <g data-gra="path-name" fill="#ffffff">
                            <g transform="scale(1)">
                                <path
                                    d="M21.17-32.87L9.67-32.87L9.67-15.61L21.17-15.61C32.44-15.61 32.28-32.87 21.17-32.87ZM9.67-15.02L9.67-3.58L9.14-3.58L9.14-33.35L21.17-33.35C32.61-33.35 32.93-16.84 22.82-15.18L24.43-12.35L29.83-3.53L29.18-3.53L22.24-15.07C21.91-15.07 21.54-15.02 21.17-15.02ZM29.02-13.26C38.48-19.67 35.81-37.36 21.11-37.42C15.66-37.42 10.10-37.42 4.70-37.42C4.70-24.91 4.70-12.45 4.70 0C7.80 0 11.06 0 14.27 0L14.27-11.01L19.24-11.01L25.66 0L36.35 0L36.35-1.39ZM21.11-19.62L14.27-19.62C14.27-22.61 14.27-25.82 14.27-28.86C16.52-28.86 18.87-28.92 21.11-28.86C26.57-28.81 26.30-19.62 21.11-19.62ZM48.75-11.44C45.49-11.44 42.71-11.44 39.50-11.44C39.29 5.02 69.75 4.60 69.75-11.12C69.75-20.47 62.48-21.43 55.05-22.24C51.69-22.61 48.91-23.20 49.12-26.03C49.44-30.47 59.49-30.89 59.49-25.92C62.75-25.92 65.21-25.92 68.58-25.92C68.79-42.07 39.71-42.07 40.03-25.92C40.14-17.80 45.49-15.02 53.61-14.43C57.35-14.22 60.45-13.79 60.45-11.17C60.45-6.79 48.75-6.68 48.75-11.44ZM62.81-29.34C58.80-36.03 44.85-34.32 44.90-25.92C44.90-19.94 49.23-19.08 54.47-18.71C59.92-18.28 65.32-17.80 65.32-11.17C65.32-2.08 48.64-0.37 44.79-8.02L45.43-8.02C49.66-1.23 64.73-2.89 64.73-11.17C64.73-17.64 59.54-17.75 54.36-18.12C48.91-18.55 44.42-19.51 44.26-25.92C44.04-34.96 59.49-36.88 63.50-29.34ZM83.38-11.44C80.12-11.44 77.34-11.44 74.14-11.44C73.92 5.02 104.39 4.60 104.39-11.12C104.39-20.47 97.12-21.43 89.69-22.24C86.32-22.61 83.54-23.20 83.76-26.03C84.08-30.47 94.13-30.89 94.13-25.92C97.39-25.92 99.85-25.92 103.21-25.92C103.43-42.07 74.35-42.07 74.67-25.92C74.78-17.80 80.12-15.02 88.25-14.43C91.99-14.22 95.09-13.79 95.09-11.17C95.09-6.79 83.38-6.68 83.38-11.44ZM97.44-29.34C93.43-36.03 79.48-34.32 79.54-25.92C79.54-19.94 83.86-19.08 89.10-18.71C94.55-18.28 99.95-17.80 99.95-11.17C99.95-2.08 83.28-0.37 79.43-8.02L80.07-8.02C84.29-1.23 99.37-2.89 99.37-11.17C99.37-17.64 94.18-17.75 89.00-18.12C83.54-18.55 79.05-19.51 78.89-25.92C78.68-34.96 94.13-36.88 98.14-29.34Z"
                                    transform="translate(-4.70369509644434, 38.03044387636532)"></path>
                            </g>
                        </g>
                    </g>
                </g>
                <g data-gra="path-name-1-bg" transform="translate(109.69000244140625,0)"
                    mask="url(#11a784bd-e18a-453e-a551-59067beb6cbf)">
                    <g>
                        <rect data-gra="graph-name-bg" stroke-width="2" class="i-icon-bg" x="0" y="0"
                            width="124.06999969482422" height="48.82003402709961" fill="#ffffff"></rect>
                        <!---->
                        <!---->
                    </g>
                    <g transform="translate(5,5)">
                        <g data-gra="path-name-1" fill="#ffffff">
                            <g transform="scale(1)">
                                <path
                                    d="M26.78-36.51L26.78-37.84L4.97-37.84L4.97 0L6.31 0L6.31-17.53L24.91-17.53L24.91-18.87L6.31-18.87L6.31-36.51ZM35.01-36.51L56.18-36.51L56.18-37.84L33.67-37.84L33.67 0L56.18 0L56.18-1.34L35.01-1.34L35.01-18.12L54.57-18.12L54.57-19.56L35.01-19.56ZM65.21-36.51L86.38-36.51L86.38-37.84L63.87-37.84L63.87 0L86.38 0L86.38-1.34L65.21-1.34L65.21-18.12L84.77-18.12L84.77-19.56L65.21-19.56ZM94.07-37.84L94.07 0L106.85 0C113.48 0 119.04-2.99 119.04-10.10L119.04-27.69C119.04-34.85 113.48-37.84 106.85-37.84ZM95.41-1.34L95.41-36.51L106.85-36.51C112.84-36.51 117.70-33.99 117.70-27.69L117.70-10.10C117.70-3.85 112.84-1.34 106.85-1.34Z"
                                    transform="translate(-4.970950499651406, 38.03044387636532)"></path>
                            </g>
                        </g>
                    </g>
                </g>
            </g>
        </g>
        <!---->
        <!---->
        <!---->
        <!---->
        <!---->
    </g>
    <mask id="11a784bd-e18a-453e-a551-59067beb6cbf">
        <g fill="white">
            <rect data-gra="graph-name-bg" stroke-width="2" class="i-icon-bg" x="0" y="0" width="124.06999969482422"
                height="48.82003402709961"></rect>
        </g>
        <g transform="translate(5,5)" fill="black">
            <g data-gra="path-name-1">
                <g transform="scale(1)">
                    <path
                        d="M26.78-36.51L26.78-37.84L4.97-37.84L4.97 0L6.31 0L6.31-17.53L24.91-17.53L24.91-18.87L6.31-18.87L6.31-36.51ZM35.01-36.51L56.18-36.51L56.18-37.84L33.67-37.84L33.67 0L56.18 0L56.18-1.34L35.01-1.34L35.01-18.12L54.57-18.12L54.57-19.56L35.01-19.56ZM65.21-36.51L86.38-36.51L86.38-37.84L63.87-37.84L63.87 0L86.38 0L86.38-1.34L65.21-1.34L65.21-18.12L84.77-18.12L84.77-19.56L65.21-19.56ZM94.07-37.84L94.07 0L106.85 0C113.48 0 119.04-2.99 119.04-10.10L119.04-27.69C119.04-34.85 113.48-37.84 106.85-37.84ZM95.41-1.34L95.41-36.51L106.85-36.51C112.84-36.51 117.70-33.99 117.70-27.69L117.70-10.10C117.70-3.85 112.84-1.34 106.85-1.34Z"
                        transform="translate(-4.970950499651406, 38.03044387636532)"></path>
                </g>
            </g>
        </g>
    </mask>
    <defs v-gra="od"></defs>
</svg>