<svg width="1200" height="487" viewBox="0 0 1200 487" fill="none" xmlns="http://www.w3.org/2000/svg">
<g clip-path="url(#clip0_2059_9061)">
<rect width="1200" height="487" rx="24" fill="white"/>
<path d="M299 -10C449.222 -10 571 103.496 571 243.5C571 383.504 449.222 497 299 497" stroke="url(#paint0_linear_2059_9061)" stroke-width="0.997262" stroke-linecap="round" stroke-linejoin="round"/>
<path d="M299 -10C449.222 -10 571 103.496 571 243.5C571 383.504 449.222 497 299 497" stroke="url(#paint1_linear_2059_9061)" stroke-width="0.997262" stroke-linecap="round" stroke-linejoin="round"/>
<path d="M322 -70C497.075 -70 639 70.3584 639 243.5C639 416.642 497.075 557 322 557" stroke="url(#paint2_linear_2059_9061)" stroke-width="0.997262" stroke-linecap="round" stroke-linejoin="round"/>
<path d="M322 -70C497.075 -70 639 70.3584 639 243.5C639 416.642 497.075 557 322 557" stroke="url(#paint3_linear_2059_9061)" stroke-width="0.997262" stroke-linecap="round" stroke-linejoin="round"/>
<path d="M348 -125C555.107 -125 723 40.4304 723 244.5C723 448.57 555.107 614 348 614" stroke="url(#paint4_linear_2059_9061)" stroke-width="0.997262" stroke-linecap="round" stroke-linejoin="round"/>
<path d="M348 -125C555.107 -125 723 40.4304 723 244.5C723 448.57 555.107 614 348 614" stroke="url(#paint5_linear_2059_9061)" stroke-width="0.997262" stroke-linecap="round" stroke-linejoin="round"/>
<path d="M346 -224C608.336 -224 821 -14.6936 821 243.5C821 501.694 608.336 711 346 711" stroke="url(#paint6_linear_2059_9061)" stroke-width="0.997262" stroke-linecap="round" stroke-linejoin="round"/>
<circle cx="502.5" cy="78.5" r="32.5" fill="white"/>
<circle cx="677.5" cy="65.5" r="32.5" fill="white"/>
<circle cx="627.5" cy="153.5" r="32.5" fill="white"/>
<circle cx="725.5" cy="243.5" r="32.5" fill="white"/>
<circle cx="819.5" cy="163.5" r="32.5" fill="white"/>
<circle cx="776.5" cy="46.5" r="32.5" fill="white"/>
<circle cx="632.5" cy="333.5" r="32.5" fill="white"/>
<circle cx="791.5" cy="431.5" r="32.5" fill="white"/>
<circle cx="823.5" cy="308.5" r="32.5" fill="white"/>
<circle cx="472.5" cy="431.5" r="32.5" fill="white"/>
<circle cx="692.5" cy="435.5" r="32.5" fill="white"/>
<path d="M368.89 283.781C390.921 283.781 408.781 265.921 408.781 243.891C408.781 221.86 390.921 204 368.89 204C346.86 204 329 221.86 329 243.891C329 265.921 346.86 283.781 368.89 283.781Z" fill="#FF7C33"/>
<path d="M353.817 264.521C357.029 264.521 359.634 261.916 359.634 258.704C359.634 255.492 357.029 252.887 353.817 252.887C350.604 252.887 348 255.492 348 258.704C348 261.916 350.604 264.521 353.817 264.521Z" fill="white"/>
<path d="M348.001 223V230.551C366.759 230.551 381.969 245.761 381.969 264.519H389.52C389.52 241.598 370.921 223 348.001 223ZM348.001 238.103V245.654C358.407 245.654 366.866 254.113 366.866 264.519H374.417C374.417 249.923 362.597 238.103 348.001 238.103Z" fill="white"/>
<circle cx="567.5" cy="243.5" r="32.5" fill="white"/>
<path d="M572.167 241.445C571.028 241.445 570.128 242.414 570.128 243.619C570.128 244.825 571.047 245.794 572.167 245.794C573.306 245.794 574.205 244.825 574.205 243.619C574.205 242.414 573.286 241.445 572.167 241.445ZM564.871 241.445C563.732 241.445 562.832 242.414 562.832 243.619C562.832 244.825 563.752 245.794 564.871 245.794C566.01 245.794 566.91 244.825 566.91 243.619C566.931 242.414 566.01 241.445 564.871 241.445Z" fill="#7289DA"/>
<path d="M581.88 225H555.097C552.839 225 551 226.819 551 229.052V255.539C551 257.772 552.839 259.591 555.097 259.591H577.762L576.703 255.974L579.261 258.306L581.68 260.5L585.997 264.197V229.052C585.977 226.819 584.138 225 581.88 225ZM574.165 250.597C574.165 250.597 573.445 249.747 572.846 249.016C575.464 248.284 576.463 246.684 576.463 246.684C575.644 247.217 574.864 247.593 574.165 247.85C573.165 248.265 572.206 248.522 571.267 248.7C569.348 249.055 567.589 248.957 566.09 248.68C564.95 248.462 563.971 248.166 563.152 247.829C562.692 247.652 562.192 247.434 561.693 247.158C561.633 247.119 561.573 247.098 561.513 247.059C561.473 247.039 561.453 247.019 561.433 247.019C561.073 246.822 560.874 246.684 560.874 246.684C560.874 246.684 561.833 248.245 564.372 248.996C563.771 249.747 563.032 250.617 563.032 250.617C558.614 250.478 556.936 247.632 556.936 247.632C556.936 241.327 559.814 236.207 559.814 236.207C562.692 234.092 565.41 234.151 565.41 234.151L565.61 234.389C562.013 235.396 560.374 236.958 560.374 236.958C560.374 236.958 560.813 236.721 561.553 236.405C563.691 235.476 565.391 235.239 566.09 235.16C566.21 235.139 566.31 235.12 566.43 235.12C567.649 234.962 569.028 234.922 570.468 235.081C572.366 235.298 574.405 235.851 576.483 236.958C576.483 236.958 574.904 235.476 571.507 234.468L571.786 234.151C571.786 234.151 574.525 234.092 577.382 236.207C577.382 236.207 580.26 241.327 580.26 247.632C580.26 247.612 578.582 250.459 574.165 250.597Z" fill="#7289DA"/>
<path d="M509.186 62.6503C507.352 61.5748 505.268 61.0054 503.148 61.0001C501.001 60.9922 498.892 61.5629 497.037 62.6503C495.202 61.5841 493.118 61.0265 491 61.0344V73.2561C490.963 86.7633 501.849 97.6637 515.223 97.702V61.0344C513.105 61.0265 511.022 61.5841 509.186 62.6503Z" fill="#100F0D"/>
<path d="M508.305 74.1891C506.392 74.1838 504.846 72.6155 504.851 70.6851C504.852 70.335 504.905 69.9862 505.008 69.6519C505.144 69.9597 505.365 70.2227 505.644 70.4063C505.924 70.59 506.25 70.6891 506.583 70.6904C506.81 70.6904 507.036 70.6468 507.246 70.5596C507.457 70.4724 507.648 70.3442 507.809 70.1817C507.971 70.0205 508.099 69.8289 508.186 69.6162C508.273 69.4048 508.318 69.1776 508.319 68.949C508.322 68.2381 507.902 67.629 507.299 67.3542C507.631 67.2512 507.977 67.1996 508.325 67.201C510.236 67.2062 511.784 68.7759 511.778 70.7049C511.772 72.6353 510.217 74.1957 508.305 74.1891ZM497.916 74.16C496.004 74.1547 494.457 72.5851 494.462 70.6561C494.467 68.7257 496.025 67.1653 497.937 67.1719C498.292 67.1719 498.636 67.2274 498.96 67.3291C498.654 67.4665 498.395 67.6885 498.213 67.9712C498.031 68.2527 497.933 68.5817 497.932 68.9186C497.932 69.1472 497.975 69.3744 498.061 69.5871C498.148 69.7985 498.275 69.9928 498.435 70.1553C498.595 70.3178 498.785 70.4473 498.995 70.5358C499.205 70.6243 499.43 70.6692 499.657 70.6706C499.991 70.6706 500.318 70.5741 500.598 70.3918C500.879 70.2094 501.101 69.9492 501.239 69.6413C501.336 69.9677 501.389 70.3152 501.389 70.6759C501.383 72.6049 499.829 74.1653 497.916 74.16ZM508.329 65.4542C505.617 65.4463 503.387 67.5392 503.145 70.2148L503.122 70.1817L503.099 70.2148C502.872 67.5379 500.653 65.4318 497.941 65.4239C495.072 65.4146 492.74 67.7559 492.732 70.6507C492.723 73.5456 495.042 75.8988 497.91 75.9067C498.893 75.9107 499.855 75.6306 500.685 75.1008L503.1 77.5504L505.53 75.1153C506.357 75.6491 507.318 75.9345 508.3 75.9371C511.169 75.945 513.501 73.6051 513.509 70.7102C513.517 67.8153 511.198 65.4622 508.329 65.4542Z" fill="white"/>
<path d="M470.918 422.877C470.179 423.539 469.956 424.586 469.956 424.586L467.478 434.155L465.435 426.309C465.237 425.488 464.868 424.441 464.301 423.752C463.589 422.877 462.127 422.824 461.968 422.824C461.809 422.824 460.334 422.877 459.609 423.765C459.042 424.467 458.673 425.501 458.476 426.322L456.432 434.168L453.98 424.586C453.98 424.586 453.769 423.526 453.019 422.877C451.806 421.803 450 422.029 450 422.029L454.705 439.972C454.705 439.972 456.261 440.091 457.039 439.681C458.054 439.163 458.554 438.753 459.173 436.301C459.727 434.128 461.269 427.739 461.415 427.276C461.48 427.05 461.572 426.508 461.968 426.508C462.377 426.508 462.456 427.037 462.521 427.276C462.666 427.727 464.195 434.128 464.762 436.301C465.382 438.74 465.869 439.137 466.897 439.681C467.674 440.091 469.231 439.972 469.231 439.972L473.936 422.042C473.936 422.042 472.13 421.817 470.918 422.877ZM478.273 424.958C478.273 424.958 477.983 425.408 477.311 425.806C476.875 426.045 476.466 426.216 476.019 426.428C475.28 426.786 475.069 427.197 475.069 427.806V439.973C475.069 439.973 476.268 440.118 477.033 439.734C478.035 439.218 478.259 438.727 478.273 436.488V424.958ZM490.029 431.041L496 422.081C496 422.081 493.483 421.644 492.231 422.798C491.427 423.526 490.53 424.839 490.53 424.839L488.342 428.045C488.224 428.204 488.104 428.39 487.881 428.39C487.657 428.39 487.512 428.217 487.419 428.045L485.205 424.851C485.205 424.851 484.322 423.539 483.505 422.81C482.266 421.658 479.735 422.094 479.735 422.094L485.719 431.027L479.735 439.945C479.735 439.945 482.372 440.29 483.61 439.137C484.415 438.408 485.192 437.202 485.192 437.202L487.381 434.009C487.499 433.849 487.617 433.665 487.841 433.665C488.066 433.665 488.211 433.837 488.302 434.009L490.491 437.202C490.491 437.202 491.308 438.382 492.099 439.137C493.337 440.29 495.935 439.945 495.935 439.945L490.029 431.041Z" fill="#2E3133"/>
<path d="M656.356 329.636C656.279 329.049 656.089 328.835 655.46 328.854C651.556 328.893 647.652 328.874 643.748 328.874C643.443 328.874 643.138 328.874 642.681 328.874C643.024 328.503 643.234 328.267 643.443 328.033C646.186 325.22 648.909 322.385 651.671 319.631C652.184 319.103 652.127 318.809 651.728 318.302C650.509 316.738 649.138 315.351 647.652 314.061C647.005 313.495 646.624 313.456 645.975 314.139C643.348 316.933 640.662 319.65 637.977 322.367C637.749 322.601 637.559 322.913 637.139 323.031C637.139 318.693 637.12 314.432 637.158 310.173C637.158 309.43 636.891 309.235 636.263 309.176C634.225 308.941 632.206 308.941 630.188 309.176C629.559 309.254 629.349 309.469 629.349 310.153C629.388 314.12 629.369 318.106 629.369 322.073C629.369 322.385 629.369 322.699 629.369 323.187C628.949 322.776 628.683 322.542 628.417 322.269C625.712 319.513 623.007 316.758 620.342 313.964C619.884 313.475 619.599 313.495 619.103 313.905C617.485 315.234 616.037 316.719 614.742 318.38C614.323 318.907 614.399 319.181 614.857 319.631C617.617 322.425 620.342 325.239 623.083 328.053C623.313 328.287 623.617 328.483 623.731 328.913C623.332 328.913 623.026 328.913 622.702 328.913C618.837 328.913 614.952 328.933 611.085 328.893C610.514 328.893 610.285 329.03 610.209 329.656C609.961 331.766 609.923 333.876 610.152 335.987C610.229 336.651 610.457 336.886 611.161 336.886C614.971 336.847 618.779 336.866 622.589 336.866C622.913 336.866 623.274 336.768 623.694 337.002C620.723 340.071 617.808 343.08 614.875 346.051C614.399 346.519 614.304 346.812 614.761 347.379C616.018 348.981 617.427 350.428 618.989 351.737C619.541 352.206 619.884 352.245 620.437 351.658C622.474 349.47 624.588 347.36 626.683 345.21C627.521 344.35 628.359 343.471 629.369 342.454C629.369 342.924 629.369 343.139 629.369 343.354C629.369 347.419 629.388 351.503 629.349 355.566C629.349 356.232 629.502 356.446 630.169 356.524C632.225 356.759 634.283 356.759 636.339 356.524C636.987 356.446 637.158 356.232 637.158 355.566C637.12 351.56 637.139 347.554 637.158 343.548C637.158 343.256 637.006 342.904 637.329 342.631C640.3 345.679 643.272 348.708 646.205 351.776C646.624 352.206 646.89 352.245 647.367 351.874C648.985 350.544 650.452 349.059 651.747 347.399C652.165 346.851 652.165 346.558 651.671 346.051C648.909 343.275 646.186 340.442 643.443 337.628C643.253 337.413 642.891 337.296 642.948 336.847C647.118 336.847 651.27 336.827 655.422 336.866C656.013 336.866 656.26 336.709 656.337 336.084C656.603 333.915 656.603 331.766 656.356 329.636ZM638.396 337.257C638.244 337.706 638.034 337.941 637.596 338.077C634.701 339.035 631.806 339.016 628.911 338.057C628.511 337.921 628.283 337.706 628.149 337.296C627.236 334.326 627.216 331.355 628.13 328.385C628.283 327.877 628.568 327.662 629.026 327.525C630.397 327.115 631.806 326.841 633.272 326.9C634.72 326.841 636.148 327.134 637.558 327.564C638.034 327.701 638.282 327.975 638.434 328.463C639.291 331.375 639.329 334.306 638.396 337.257Z" fill="#FE4A00"/>
<path d="M607.309 153.268C607.309 161.169 611.9 167.996 618.559 171.233L609.037 145.144C607.895 147.7 607.307 150.469 607.309 153.268ZM640.745 152.261C640.745 149.793 639.859 148.085 639.099 146.755C638.087 145.11 637.14 143.718 637.14 142.074C637.14 140.239 638.531 138.531 640.491 138.531C640.579 138.531 640.663 138.542 640.75 138.547C637.199 135.293 632.467 133.307 627.27 133.307C620.296 133.307 614.161 136.885 610.592 142.304C611.06 142.318 611.502 142.328 611.876 142.328C613.964 142.328 617.196 142.075 617.196 142.075C618.273 142.011 618.399 143.591 617.324 143.719C617.324 143.719 616.243 143.846 615.039 143.909L622.308 165.53L626.677 152.429L623.567 143.909C622.492 143.846 621.474 143.718 621.474 143.718C620.398 143.655 620.524 142.011 621.599 142.074C621.599 142.074 624.896 142.327 626.858 142.327C628.945 142.327 632.177 142.074 632.177 142.074C633.254 142.011 633.381 143.591 632.306 143.718C632.306 143.718 631.222 143.846 630.021 143.909L637.234 165.367L639.225 158.713C640.089 155.952 640.745 153.969 640.745 152.261Z" fill="#00749A"/>
<path d="M627.62 155.012L621.631 172.416C623.462 172.955 625.361 173.229 627.27 173.229C629.594 173.229 631.824 172.827 633.898 172.097C633.843 172.011 633.795 171.919 633.757 171.823L627.62 155.012ZM644.785 143.689C644.871 144.326 644.92 145.009 644.92 145.743C644.92 147.768 644.541 150.045 643.402 152.892L637.305 170.521C643.239 167.06 647.231 160.631 647.231 153.267C647.236 149.919 646.395 146.625 644.785 143.689Z" fill="#00749A"/>
<path d="M627.269 130C614.438 130 604 140.437 604 153.268C604 166.099 614.438 176.537 627.269 176.537C640.099 176.537 650.539 166.1 650.539 153.268C650.538 140.437 640.099 130 627.269 130ZM627.269 175.47C615.027 175.47 605.067 165.511 605.067 153.268C605.067 141.027 615.027 131.067 627.269 131.067C639.511 131.067 649.469 141.027 649.469 153.268C649.469 165.511 639.51 175.47 627.269 175.47Z" fill="#00749A"/>
<path d="M680.619 456.783L666.305 442.245C664.565 440.489 664.565 436.684 666.305 435.026L686.808 414.244C688.452 412.585 692.127 412.585 693.771 414.244L714.37 435.026C716.11 436.782 716.11 440.586 714.37 442.245L700.058 456.783C699.187 457.661 697.833 458.246 696.479 458.246H684.004C682.746 458.246 681.488 457.661 680.619 456.783ZM693.674 451.123C693.964 450.831 693.964 450.246 693.674 449.953L690.87 447.123C690.58 446.831 689.999 446.831 689.709 447.123L686.905 449.953C686.614 450.246 686.614 450.831 686.905 451.123L689.129 453.271H691.45L693.674 451.123ZM693.674 439.123C693.868 438.928 693.868 438.44 693.674 438.245L690.676 435.221C690.483 435.026 689.999 435.026 689.806 435.221L681.103 444.002C680.812 444.294 680.812 444.977 681.103 445.27L683.133 447.319H685.454L693.674 439.123ZM693.674 427.22C693.868 427.025 693.964 426.439 693.674 426.245L690.773 423.318C690.58 423.122 689.999 423.122 689.709 423.318L675.106 438.05C674.913 438.245 674.816 438.83 675.009 439.026L677.331 441.27H679.555L693.674 427.22Z" fill="#6CC655"/>
<path d="M724.906 227.174C725.169 227.174 725.302 227.304 725.565 227.434C723.983 228.085 722.4 229.778 721.608 233.423L718.706 234.205C719.63 231.601 721.476 227.174 724.906 227.174ZM726.357 228.476C726.62 229.257 726.885 230.168 726.885 231.601C726.885 231.731 726.885 231.731 726.885 231.861L723.059 232.903C723.851 230.168 725.169 228.997 726.357 228.476ZM729.787 230.819L728.071 231.34C728.071 231.21 728.071 231.08 728.071 230.95C728.071 229.778 727.94 228.866 727.675 228.085C728.599 228.346 729.391 229.517 729.787 230.819ZM738.361 232.903C738.361 232.772 738.229 232.642 738.097 232.642C737.833 232.642 735.063 232.382 735.063 232.382C735.063 232.382 733.085 230.429 732.82 230.299C732.557 230.038 732.161 230.168 732.029 230.168C732.029 230.168 731.634 230.299 730.973 230.559C730.314 228.736 729.127 227.044 727.148 227.044H727.016C726.489 226.263 725.697 226.002 725.038 226.002C720.289 225.872 718.047 231.731 717.255 234.725C716.2 234.986 715.145 235.376 713.957 235.767C712.902 236.027 712.902 236.158 712.77 237.069C712.638 237.72 710 258.291 710 258.291L730.973 262.197L742.318 259.723C742.318 259.723 738.361 233.163 738.361 232.903Z" fill="#8DB849"/>
<path d="M737.965 232.642C737.833 232.642 735.063 232.381 735.063 232.381C735.063 232.381 733.085 230.428 732.821 230.298C732.689 230.168 732.689 230.168 732.556 230.168L730.974 262.196L742.318 259.723C742.318 259.723 738.36 233.162 738.36 232.902C738.36 232.772 738.097 232.642 737.965 232.642Z" fill="#5A863E"/>
<path d="M727.149 238.894L725.698 243.06C725.698 243.06 724.51 242.409 722.928 242.409C720.685 242.409 720.553 243.711 720.553 244.101C720.553 245.924 725.567 246.705 725.567 251.132C725.567 254.647 723.324 256.861 720.29 256.861C716.728 256.861 714.881 254.647 714.881 254.647L715.804 251.523C715.804 251.523 717.651 253.085 719.234 253.085C720.29 253.085 720.685 252.304 720.685 251.653C720.685 249.179 716.596 249.049 716.596 245.013C716.596 241.628 719.102 238.373 723.983 238.373C726.226 238.243 727.149 238.894 727.149 238.894Z" fill="#FFFFFE"/>
<path d="M687.257 47C684.264 47 683.505 49.4873 683.505 49.4873V60.6157C683.505 60.6157 680.554 57.1173 676.087 57.0754C671.661 57.0326 665 61.0376 665 70.6492C665 80.2598 669.553 84.9399 676.213 84.9399C682.873 84.9399 684.686 80.0913 684.686 80.0913V82.5784C684.686 82.5784 684.812 84.9399 687.931 84.9399C691.051 84.9399 690.966 82.368 690.966 82.368V49.4025C690.966 49.4025 690.25 47 687.257 47ZM678.194 79.4171C674.78 79.4171 671.998 75.7073 671.998 71.07C671.998 66.4756 674.78 62.7239 678.194 62.7239C681.608 62.7239 684.391 66.4338 684.391 71.07C684.348 75.6654 681.608 79.4171 678.194 79.4171Z" fill="black"/>
<path d="M791.6 426.205C794.42 426.205 796.706 423.921 796.706 421.103C796.706 418.285 794.42 416 791.6 416C788.781 416 786.495 418.285 786.495 421.103C786.495 423.921 788.781 426.205 791.6 426.205Z" fill="#7B83EB"/>
<path d="M803.086 426.569C805.201 426.569 806.915 424.856 806.915 422.743C806.915 420.629 805.201 418.916 803.086 418.916C800.971 418.916 799.257 420.629 799.257 422.743C799.257 424.856 800.971 426.569 803.086 426.569Z" fill="#5059C9"/>
<path d="M806.368 427.664H797.767C797.582 427.664 797.403 427.738 797.273 427.87C797.141 428 797.067 428.179 797.067 428.364V437.231C797.043 438.514 797.462 439.767 798.252 440.779C799.042 441.79 800.156 442.5 801.407 442.79C802.204 442.957 803.029 442.944 803.82 442.753C804.612 442.561 805.351 442.196 805.983 441.684C806.615 441.17 807.125 440.523 807.476 439.789C807.826 439.054 808.008 438.251 808.008 437.436V429.305C808.008 428.87 807.836 428.452 807.528 428.145C807.221 427.838 806.803 427.664 806.368 427.664Z" fill="#5059C9"/>
<path d="M800.348 429.305V439.691C800.35 441.616 799.714 443.488 798.543 445.015C797.371 446.542 795.727 447.64 793.866 448.139C792.007 448.637 790.033 448.509 788.254 447.772C786.475 447.035 784.988 445.731 784.026 444.064C783.815 443.715 783.633 443.349 783.479 442.971C783.335 442.615 783.215 442.249 783.118 441.878C782.937 441.163 782.846 440.428 782.845 439.691V429.305C782.844 429.089 782.887 428.876 782.968 428.676C783.051 428.478 783.172 428.296 783.324 428.144C783.477 427.992 783.658 427.871 783.857 427.789C784.056 427.706 784.27 427.664 784.485 427.664H798.707C798.923 427.664 799.136 427.706 799.335 427.789C799.535 427.871 799.715 427.992 799.868 428.144C800.021 428.296 800.141 428.478 800.224 428.676C800.306 428.876 800.349 429.089 800.348 429.305Z" fill="#7B83EB"/>
<path opacity="0.1" d="M792.69 427.664V441.517C792.69 441.847 792.577 442.166 792.371 442.423C792.163 442.68 791.875 442.857 791.553 442.927C791.449 442.958 791.342 442.973 791.235 442.971H783.479C783.335 442.615 783.215 442.249 783.118 441.878C782.937 441.163 782.846 440.428 782.845 439.691V429.305C782.844 429.089 782.887 428.876 782.968 428.676C783.051 428.478 783.172 428.296 783.324 428.144C783.477 427.992 783.658 427.871 783.857 427.789C784.056 427.706 784.27 427.664 784.485 427.664H792.69Z" fill="black"/>
<path opacity="0.2" d="M791.596 427.664V442.61C791.598 442.718 791.583 442.824 791.553 442.927C791.482 443.249 791.305 443.538 791.047 443.745C790.791 443.951 790.471 444.064 790.141 444.064H784.026C783.815 443.715 783.633 443.349 783.479 442.971C783.335 442.615 783.215 442.249 783.118 441.878C782.937 441.163 782.846 440.428 782.845 439.691V429.305C782.844 429.089 782.887 428.876 782.968 428.676C783.051 428.478 783.172 428.296 783.324 428.144C783.477 427.992 783.658 427.871 783.857 427.789C784.056 427.706 784.27 427.664 784.485 427.664H791.596Z" fill="black"/>
<path opacity="0.2" d="M791.596 427.664V440.424C791.595 440.809 791.44 441.178 791.168 441.45C790.896 441.722 790.527 441.876 790.141 441.878H783.118C782.937 441.163 782.846 440.428 782.845 439.691V429.305C782.844 429.089 782.887 428.876 782.968 428.676C783.051 428.478 783.172 428.296 783.324 428.144C783.477 427.992 783.658 427.871 783.857 427.789C784.056 427.706 784.27 427.664 784.485 427.664H791.596Z" fill="black"/>
<path d="M774.459 423.289H789.046C789.433 423.289 789.804 423.443 790.077 423.716C790.35 423.989 790.504 424.36 790.504 424.746V439.325C790.504 439.711 790.35 440.082 790.077 440.355C789.804 440.628 789.433 440.782 789.046 440.782H774.459C774.072 440.782 773.701 440.628 773.428 440.355C773.154 440.082 773 439.711 773 439.325V424.746C773 424.36 773.154 423.989 773.428 423.716C773.701 423.443 774.072 423.289 774.459 423.289Z" fill="#4B53BC"/>
<path d="M786.106 428.728H782.835V437.497H780.688V428.728H777.397V426.574H786.106V428.728Z" fill="white"/>
<path fill-rule="evenodd" clip-rule="evenodd" d="M810.54 314.605C810.54 317.236 808.418 319.361 805.788 319.361C803.158 319.361 801.035 317.229 801.035 314.605C801.035 311.98 803.158 309.848 805.788 309.848H810.54V314.605ZM812.913 314.605C812.913 311.973 815.036 309.848 817.666 309.848C820.295 309.848 822.418 311.973 822.418 314.605V326.492C822.418 329.124 820.295 331.248 817.666 331.248C815.036 331.248 812.913 329.124 812.913 326.492V314.605Z" fill="#E01E5A"/>
<path fill-rule="evenodd" clip-rule="evenodd" d="M817.666 295.513C815.036 295.513 812.914 293.389 812.914 290.757C812.914 288.124 815.036 286 817.666 286C820.296 286 822.419 288.124 822.419 290.757V295.513H817.666ZM817.666 297.923C820.296 297.923 822.419 300.047 822.419 302.679C822.419 305.312 820.296 307.436 817.666 307.436H805.753C803.123 307.436 801 305.304 801 302.679C801 300.054 803.123 297.923 805.753 297.923H817.666Z" fill="#36C5F0"/>
<path fill-rule="evenodd" clip-rule="evenodd" d="M836.707 302.679C836.707 300.047 838.829 297.923 841.459 297.923C844.089 297.923 846.212 300.047 846.212 302.679C846.212 305.311 844.089 307.436 841.459 307.436H836.707V302.679ZM834.334 302.679C834.334 305.311 832.212 307.436 829.582 307.436C826.952 307.436 824.829 305.311 824.829 302.679V290.756C824.829 288.124 826.952 286 829.582 286C832.212 286 834.334 288.124 834.334 290.756V302.679Z" fill="#2EB67D"/>
<path fill-rule="evenodd" clip-rule="evenodd" d="M829.582 321.735C832.212 321.735 834.334 323.86 834.334 326.492C834.334 329.124 832.212 331.248 829.582 331.248C826.952 331.248 824.829 329.124 824.829 326.492V321.735H829.582ZM829.582 319.361C826.952 319.361 824.829 317.236 824.829 314.605C824.829 311.973 826.952 309.848 829.582 309.848H841.495C844.125 309.848 846.248 311.973 846.248 314.605C846.248 317.236 844.125 319.361 841.495 319.361H829.582Z" fill="#ECB22E"/>
<path d="M760.822 40H766.609V44.5017H760.822V40ZM760.822 45.7692H764.778V50.2748H760.822V45.7692ZM767.876 40H771.185V44.5017H767.876V40ZM775.564 40H778.873V44.5017H775.564V40ZM779.986 40H783.294V44.5017H779.986V40ZM787.674 40H790.981V44.5017H787.674V40ZM792.235 40H795.544V44.5017H792.235V40ZM799.923 40H803.232V44.5017H799.923V40Z" fill="black"/>
<path d="M756.331 40H760.835V54.0754H756.331V40ZM750 40H754.5V54.0754H750V40ZM771.114 40H775.62V54.0754H771.114V40ZM783.223 40H787.728V54.0754H783.223V40ZM795.47 40H799.976V54.0754H795.47V40Z" fill="black"/>
<path d="M771.115 40H775.62V44.5017H771.115V40ZM783.223 40H787.729V44.5017H783.223V40ZM795.473 40H799.978V44.5017H795.473V40ZM756.33 40H760.836V44.5017H756.33V40ZM756.33 45.7692H760.836V50.2748H756.33V45.7692Z" fill="black"/>
<path d="M822.845 158.565C822.951 157.82 823.544 157.161 824.295 157.035C825.032 156.883 825.844 157.24 826.206 157.905C826.514 158.41 826.478 159.024 826.472 159.594C827.44 159.46 828.452 159.712 829.215 160.332C829.223 159.774 829.186 159.213 829.236 158.657C829.309 157.878 829.92 157.179 830.696 157.04C831.461 156.873 832.315 157.242 832.683 157.94C832.985 158.455 832.933 159.069 832.931 159.641C833.467 159.587 834.039 159.693 834.456 160.053C834.878 160.385 835.053 160.911 835.227 161.398C835.392 160.983 835.527 160.533 835.843 160.204C836.377 159.627 837.298 159.458 837.998 159.816C838.56 160.083 838.996 160.646 839.017 161.279C839.057 161.786 838.829 162.253 838.642 162.709C837.804 164.784 836.966 166.859 836.127 168.933C835.961 169.347 835.688 169.729 835.305 169.967C834.693 170.357 833.862 170.288 833.266 169.899C832.772 169.578 832.464 168.979 832.525 168.388C832.584 167.844 832.688 167.307 832.793 166.771C832.506 167.391 831.898 167.871 831.201 167.891C830.47 167.964 829.769 167.537 829.421 166.906C828.439 167.864 826.879 168.187 825.624 167.595C825.122 167.831 824.528 167.919 824.001 167.713C823.666 167.597 823.405 167.351 823.169 167.097C821.941 167.864 820.364 168.14 818.981 167.654C818.342 167.437 817.778 167.038 817.328 166.54C816.471 167.5 815.131 167.896 813.876 167.894C812.485 167.893 811.124 167.134 810.434 165.918C810.229 166.565 809.945 167.255 809.332 167.614C808.594 168.06 807.551 167.981 806.925 167.374C806.727 167.19 806.591 166.954 806.456 166.723C806.27 167.088 806.017 167.432 805.651 167.631C804.902 168.055 803.867 167.961 803.249 167.346C802.932 167.044 802.74 166.641 802.597 166.233C802.135 164.919 801.663 163.61 801.201 162.298C801.003 161.737 800.883 161.085 801.173 160.534C801.645 159.597 802.971 159.285 803.84 159.848C804.243 160.091 804.501 160.509 804.645 160.948C804.789 160.561 804.992 160.176 805.335 159.929C806.047 159.397 807.152 159.453 807.777 160.097C808.018 160.332 808.158 160.642 808.276 160.951C808.436 160.427 808.792 159.945 809.307 159.727C810.087 159.372 811.067 159.621 811.595 160.294C812.445 159.685 813.54 159.435 814.571 159.635C815.591 159.815 816.489 160.452 817.089 161.286C817.665 160.471 818.526 159.84 819.516 159.648C820.671 159.399 821.914 159.727 822.814 160.488C822.827 159.846 822.776 159.203 822.845 158.565ZM823.844 158.94C823.839 161.215 823.845 163.489 823.841 165.762C823.842 166.015 823.858 166.289 824.021 166.495C824.262 166.836 824.779 166.893 825.121 166.679C825.313 166.565 825.385 166.341 825.477 166.151C826.201 167.138 827.748 167.042 828.593 166.265C829.862 165.151 829.956 163.109 829.082 161.73C828.666 161.053 827.907 160.596 827.108 160.585C826.506 160.551 825.921 160.781 825.442 161.135C825.435 160.35 825.465 159.563 825.429 158.779C825.415 158.311 824.949 157.929 824.485 158.041C824.065 158.106 823.821 158.541 823.844 158.94ZM830.733 158.098C830.366 158.251 830.22 158.67 830.243 159.042C830.247 161.347 830.238 163.652 830.247 165.957C830.22 166.395 830.538 166.854 831 166.87C831.474 166.935 831.9 166.513 831.893 166.047C831.915 163.779 831.891 161.509 831.905 159.241C831.902 158.933 831.92 158.588 831.714 158.335C831.495 158.037 831.063 157.948 830.733 158.098ZM802.048 161.108C801.975 161.515 802.163 161.908 802.286 162.287C802.741 163.55 803.182 164.818 803.64 166.08C803.776 166.478 804.102 166.856 804.553 166.864C805.004 166.925 805.435 166.618 805.558 166.189C805.869 165.266 806.152 164.334 806.46 163.412C806.745 164.278 807.021 165.147 807.301 166.016C807.394 166.307 807.531 166.618 807.817 166.764C808.167 166.937 808.636 166.913 808.929 166.64C809.142 166.444 809.252 166.169 809.349 165.905C809.825 164.554 810.312 163.209 810.787 161.859C810.899 161.56 810.952 161.197 810.756 160.92C810.418 160.42 809.513 160.495 809.325 161.094C808.963 162.208 808.646 163.337 808.294 164.453C807.932 163.346 807.61 162.226 807.236 161.123C807.081 160.596 806.377 160.432 805.957 160.739C805.762 160.885 805.677 161.125 805.602 161.346C805.278 162.381 804.958 163.419 804.626 164.452C804.289 163.37 803.97 162.282 803.636 161.199C803.493 160.435 802.276 160.384 802.048 161.108ZM811.823 161.46C810.78 162.529 810.628 164.323 811.438 165.57C811.827 166.177 812.464 166.608 813.162 166.775C814.054 166.991 815.011 166.834 815.824 166.426C816.129 166.263 816.445 166.061 816.604 165.741C816.84 165.285 816.337 164.666 815.842 164.821C815.457 164.953 815.131 165.215 814.745 165.347C814.171 165.555 813.468 165.481 812.996 165.076C812.76 164.882 812.661 164.582 812.577 164.299C813.789 164.284 815.002 164.315 816.214 164.285C816.528 164.291 816.787 164.02 816.792 163.712C816.871 162.228 815.676 160.77 814.187 160.611C813.322 160.504 812.419 160.824 811.823 161.46ZM818.561 161.201C817.54 162.006 817.15 163.451 817.498 164.686C817.706 165.485 818.256 166.197 819.006 166.554C820.024 167.053 821.256 166.929 822.252 166.439C822.577 166.267 822.92 166.054 823.073 165.704C823.268 165.246 822.769 164.662 822.285 164.822C821.942 164.943 821.647 165.167 821.311 165.302C820.729 165.559 819.995 165.509 819.488 165.109C819.231 164.913 819.118 164.6 819.027 164.302C820.233 164.281 821.44 164.313 822.645 164.287C822.967 164.3 823.242 164.032 823.245 163.712C823.32 162.331 822.294 160.975 820.948 160.662C820.124 160.474 819.219 160.665 818.561 161.201ZM832.519 161.13C832.419 161.386 832.511 161.662 832.605 161.904C833.194 163.355 833.776 164.809 834.362 166.261C834.136 166.826 833.902 167.39 833.675 167.954C833.584 168.197 833.487 168.473 833.586 168.728C833.735 169.111 834.213 169.27 834.589 169.177C834.932 169.075 835.105 168.731 835.227 168.424C836.117 166.204 837.021 163.988 837.912 161.768C838.073 161.424 837.989 160.965 837.634 160.779C837.22 160.5 836.595 160.701 836.427 161.173C836.004 162.208 835.608 163.254 835.194 164.292C834.833 163.313 834.471 162.334 834.116 161.353C834.022 161.092 833.874 160.818 833.598 160.718C833.204 160.54 832.69 160.732 832.519 161.13ZM813.059 162.303C812.827 162.532 812.736 162.853 812.657 163.159C813.535 163.163 814.414 163.163 815.295 163.159C815.212 162.855 815.123 162.534 814.895 162.304C814.429 161.787 813.525 161.788 813.059 162.303ZM819.464 162.294C819.229 162.525 819.134 162.849 819.053 163.158C819.932 163.164 820.812 163.163 821.691 163.159C821.609 162.862 821.524 162.548 821.305 162.319C820.847 161.791 819.937 161.781 819.464 162.294ZM826.465 162.108C826.162 162.173 825.901 162.378 825.74 162.64C825.338 163.324 825.376 164.25 825.823 164.903C826.184 165.45 827.042 165.544 827.507 165.079C828.151 164.429 828.179 163.308 827.671 162.568C827.412 162.183 826.916 161.992 826.465 162.108Z" fill="#1F8EED"/>
</g>
<rect x="0.5" y="0.5" width="1199" height="486" rx="23.5" stroke="#E4EAFF"/>
<defs>
<linearGradient id="paint0_linear_2059_9061" x1="299" y1="243.5" x2="571" y2="243.5" gradientUnits="userSpaceOnUse">
<stop stop-color="#ABABAB" stop-opacity="0"/>
<stop offset="1" stop-color="#636363"/>
</linearGradient>
<linearGradient id="paint1_linear_2059_9061" x1="299" y1="243.5" x2="571" y2="243.5" gradientUnits="userSpaceOnUse">
<stop stop-color="#FF7C33" stop-opacity="0"/>
<stop offset="1" stop-color="#FF7C33"/>
</linearGradient>
<linearGradient id="paint2_linear_2059_9061" x1="322" y1="243.5" x2="639" y2="243.5" gradientUnits="userSpaceOnUse">
<stop stop-color="#ABABAB" stop-opacity="0"/>
<stop offset="1" stop-color="#636363"/>
</linearGradient>
<linearGradient id="paint3_linear_2059_9061" x1="322" y1="243.5" x2="639" y2="243.5" gradientUnits="userSpaceOnUse">
<stop stop-color="#FF7C33" stop-opacity="0"/>
<stop offset="1" stop-color="#FF7C33"/>
</linearGradient>
<linearGradient id="paint4_linear_2059_9061" x1="348" y1="244.5" x2="723" y2="244.5" gradientUnits="userSpaceOnUse">
<stop stop-color="#ABABAB" stop-opacity="0"/>
<stop offset="1" stop-color="#636363"/>
</linearGradient>
<linearGradient id="paint5_linear_2059_9061" x1="348" y1="244.5" x2="723" y2="244.5" gradientUnits="userSpaceOnUse">
<stop stop-color="#FF7C33" stop-opacity="0"/>
<stop offset="1" stop-color="#FF7C33"/>
</linearGradient>
<linearGradient id="paint6_linear_2059_9061" x1="346" y1="243.5" x2="821" y2="243.5" gradientUnits="userSpaceOnUse">
<stop stop-color="#FF7C33" stop-opacity="0"/>
<stop offset="1" stop-color="#FF7C33"/>
</linearGradient>
<clipPath id="clip0_2059_9061">
<rect width="1200" height="487" rx="24" fill="white"/>
</clipPath>
</defs>
</svg>
