<svg width="80" height="80" viewBox="0 0 80 80" fill="none" xmlns="http://www.w3.org/2000/svg">
<g clip-path="url(#clip0_2039_9061)">
<mask id="mask0_2039_9061" style="mask-type:luminance" maskUnits="userSpaceOnUse" x="0" y="0" width="80" height="80">
<path d="M80 0H0V80H80V0Z" fill="white"/>
</mask>
<g mask="url(#mask0_2039_9061)">
<g opacity="0.245315">
<path d="M40.0001 75.5563C59.6371 75.5563 75.5561 59.6373 75.5561 40.0003C75.5561 20.3633 59.6371 4.44434 40.0001 4.44434C20.3631 4.44434 4.44409 20.3633 4.44409 40.0003C4.44409 59.6373 20.3631 75.5563 40.0001 75.5563Z" fill="#F2804D"/>
</g>
<g opacity="0.625373">
<path d="M47.2972 38.9475L53.4924 40.5194C56.3065 41.2505 56.3441 43.4745 53.6109 45.4902L31.1529 61.9401C27.8563 64.3678 26.3216 63.1126 27.7361 59.1355L33.8163 42.1666L27.6199 40.5947C24.8058 39.8636 24.7682 37.6396 27.5014 35.6239L49.9595 19.1739C53.256 16.7463 54.7907 18.0015 53.3762 21.9786L47.2972 38.9475Z" fill="#F2804D"/>
</g>
</g>
</g>
<defs>
<clipPath id="clip0_2039_9061">
<rect width="80" height="80" fill="white"/>
</clipPath>
</defs>
</svg>
