<?xml version="1.0" encoding="UTF-8"?>
<svg width="88" height="200" version="1.1" viewBox="0 0 88 200" xmlns="http://www.w3.org/2000/svg" xmlns:cc="http://creativecommons.org/ns#" xmlns:dc="http://purl.org/dc/elements/1.1/" xmlns:rdf="http://www.w3.org/1999/02/22-rdf-syntax-ns#">
 <metadata>
  <rdf:RDF>
   <cc:Work rdf:about="">
    <dc:format>image/svg+xml</dc:format>
    <dc:type rdf:resource="http://purl.org/dc/dcmitype/StillImage"/>
    <dc:title/>
   </cc:Work>
  </rdf:RDF>
 </metadata>
 <g transform="translate(-175.52 -125.22)" display="none">
  <rect x="22.223" y="17.966" width="709.13" height="985.91" fill="#f39355" stroke-width="2.5"/>
 </g>
 <g transform="translate(-175.52 -125.22)">
  <ellipse cx="223.36" cy="317.99" rx="40.155" ry="7.2264" fill-opacity=".12785"/>
  <g fill="#d5d2c2">
   <rect x="197.58" y="252.83" width="45.922" height="18.278"/>
   <rect x="197.58" y="263.8" width="11.534" height="52.072"/>
   <rect x="231.97" y="265.6" width="11.534" height="49.522"/>
  </g>
  <ellipse cx="200.99" cy="316.29" rx="8.3301" ry="3.6132"/>
  <ellipse cx="236.02" cy="316.51" rx="8.3301" ry="3.6132"/>
  <path d="m199.93 267.62 6.835-5.3135" fill="none" stroke="#000" stroke-opacity=".58904" stroke-width=".29829px"/>
  <path d="m240.51 267.51-6.835-5.3135" fill="none" stroke="#000" stroke-opacity=".58904" stroke-width=".29829px"/>
  <g>
   <rect x="197.58" y="206.2" width="46.136" height="51.435" fill="#7c82a8"/>
   <ellipse cx="184.65" cy="250.89" rx="2.8835" ry="4.9947" fill="#f3cb81"/>
   <ellipse cx="257.38" cy="248.92" rx="2.8835" ry="4.9947" fill="#f3cb81"/>
  </g>
  <path d="m200.14 218.95c-16.813-0.35479-15.214 12.372-15.379 29.968" fill="none" stroke="#7c82a8" stroke-width="5.9658"/>
  <path d="m242 216.51c16.813-0.35479 15.214 12.372 15.379 29.968" fill="none" stroke="#7c82a8" stroke-width="5.9658"/>
  <g fill="#737991">
   <ellipse cx="202.81" cy="220.97" rx="2.4563" ry="2.4442"/>
   <ellipse cx="211.46" cy="221.07" rx="2.4563" ry="2.4442"/>
   <ellipse cx="220.22" cy="221.07" rx="2.4563" ry="2.4442"/>
   <ellipse cx="229.19" cy="221.07" rx="2.4563" ry="2.4442"/>
   <ellipse cx="238.16" cy="221.07" rx="2.4563" ry="2.4442"/>
   <ellipse cx="207.46" cy="227.61" rx="2.4563" ry="2.4442"/>
   <ellipse cx="216.11" cy="227.72" rx="2.4563" ry="2.4442"/>
   <ellipse cx="224.86" cy="227.72" rx="2.4563" ry="2.4442"/>
   <ellipse cx="233.83" cy="227.72" rx="2.4563" ry="2.4442"/>
   <ellipse cx="203.61" cy="235.05" rx="2.4563" ry="2.4442"/>
   <ellipse cx="212.26" cy="235.16" rx="2.4563" ry="2.4442"/>
   <ellipse cx="221.02" cy="235.16" rx="2.4563" ry="2.4442"/>
   <ellipse cx="229.99" cy="235.16" rx="2.4563" ry="2.4442"/>
   <ellipse cx="238.96" cy="235.16" rx="2.4563" ry="2.4442"/>
   <ellipse cx="207.24" cy="242.91" rx="2.4563" ry="2.4442"/>
   <ellipse cx="215.89" cy="243.02" rx="2.4563" ry="2.4442"/>
   <ellipse cx="224.65" cy="243.02" rx="2.4563" ry="2.4442"/>
   <ellipse cx="233.62" cy="243.02" rx="2.4563" ry="2.4442"/>
   <ellipse cx="202.76" cy="250.35" rx="2.4563" ry="2.4442"/>
   <ellipse cx="211.41" cy="250.46" rx="2.4563" ry="2.4442"/>
   <ellipse cx="220.16" cy="250.46" rx="2.4563" ry="2.4442"/>
   <ellipse cx="229.14" cy="250.46" rx="2.4563" ry="2.4442"/>
   <ellipse cx="238.11" cy="250.46" rx="2.4563" ry="2.4442"/>
  </g>
  <path d="m176.19 191.17c-4.8164-30.313 17.08-49.559 34.602-50.584 36.275-1.1647 40.325 23.749 43.573 31.031 2.2654 8.2594 1.962 19.998-2.1359 24.655-5.7396 11.706-20.4 18.192-35.029 17.853-12.561 0.93691-21.925-0.80774-30.757-6.3762-6.5408-4.3679-8.2944-8.7709-10.252-16.578z" fill="#f3cb81"/>
  <ellipse cx="193.84" cy="189.19" rx="4.2718" ry="4.8884" stroke-width=".69804"/>
  <ellipse cx="232.18" cy="178.04" rx="4.2718" ry="4.8884" stroke-width=".69804"/>
  <g stroke="#000" stroke-width=".29829px">
   <path d="m210.61 202.8c7.0344-10.706 14.229-5.8227 15.592-4.7822-6.3924-1.6793-11.233 1.1332-15.592 4.7822z"/>
   <path d="m184.01 175.38c3.2327-0.84248 10.749-1.9986 10.146-7.1201-3.8152 4.7735-7.1513 5.4779-10.146 7.1201z"/>
   <path d="m218.4 159.65c0.45504 3.4081 8.64 3.2602 15.058 1.7003-5.8448-0.38326-9.7675 0.29603-15.058-1.7003z"/>
  </g>
  <path d="m219.15 141.8c-3.9247 1.7958-4.8643 5.93-10.68 9.3518-5.9094 2.7356-12.246 4.9672-17.728 4.2508-3.4361-0.2245-5.4488-2.284-5.5534-9.7768 0.65282-11.925 5.6762-13.681 8.5437-20.404 0.9064 4.8239 0.27063 9.5926 4.0583 14.028 4.9666 3.17 9.6808-5.9926 17.087-3.6132 18.966 9.7742 9.1267 5.1838 4.2718 6.1637z" fill="#94c1b9"/>
  <path d="m215.95 141.16c-4.4821 8.2809-18.899 13.022-24.136 9.7768-8.3621-7.0266-1.0184-17.643 1.9223-25.292" fill="none" stroke="#8ba2d7" stroke-width=".44744"/>
  <path d="m214.02 137.76c-4.0335 3.2633-8.8059 9.3729-16.233 8.0765-8.3932-2.612-2.9903-13.461-4.4854-20.191" fill="none" stroke="#8ba2d7" stroke-width=".44744"/>
 </g>
</svg>
