<?xml version="1.0" encoding="UTF-8"?>
<svg version="1.1" viewBox="0 0 88 200" xmlns="http://www.w3.org/2000/svg">
 <ellipse transform="scale(-1,1)" cx="-43.59" cy="192.98" rx="38.813" ry="7.0194" fill-opacity=".12785"/>
 <g transform="translate(-648.84,123.58)" fill="#d5d2c2">
  <rect transform="scale(-1,1)" x="-717.35" y="6.0986" width="44.387" height="17.755"/>
  <rect transform="scale(-1,1)" x="-717.35" y="16.752" width="11.148" height="50.581"/>
  <rect transform="scale(-1,1)" x="-684.11" y="18.506" width="11.148" height="48.103"/>
 </g>
 <ellipse transform="scale(-1,1)" cx="-65.21" cy="191.32" rx="8.0517" ry="3.5097"/>
 <ellipse transform="scale(-1,1)" cx="-31.35" cy="191.53" rx="8.0517" ry="3.5097"/>
 <path d="m66.24 144.05-6.6065-5.1613" fill="none" stroke="#000" stroke-opacity=".58904" stroke-width=".28903px"/>
 <path d="m27.01 143.94 6.6065-5.1613" fill="none" stroke="#000" stroke-opacity=".58904" stroke-width=".28903px"/>
 <rect transform="scale(-1,1)" x="-68.51" y="84.383" width="44.594" height="49.962" fill="#7c82a8"/>
 <path d="m27.312 92.851c-19.541 24.618-12.19 27.886 4.6795 32.4" fill="none" stroke="#7c82a8" stroke-width="5.7807"/>
 <g transform="translate(-648.84,123.58)" fill="#737991">
  <circle transform="scale(-1,1)" cx="-712.29" cy="-24.849" r="2.3742"/>
  <circle transform="scale(-1,1)" cx="-703.93" cy="-24.745" r="2.3742"/>
  <circle transform="scale(-1,1)" cx="-695.47" cy="-24.745" r="2.3742"/>
  <circle transform="scale(-1,1)" cx="-686.79" cy="-24.745" r="2.3742"/>
  <circle transform="scale(-1,1)" cx="-678.12" cy="-24.745" r="2.3742"/>
  <circle transform="scale(-1,1)" cx="-707.8" cy="-18.397" r="2.3742"/>
  <circle transform="scale(-1,1)" cx="-699.44" cy="-18.294" r="2.3742"/>
  <circle transform="scale(-1,1)" cx="-690.98" cy="-18.294" r="2.3742"/>
  <circle transform="scale(-1,1)" cx="-682.3" cy="-18.294" r="2.3742"/>
  <circle transform="scale(-1,1)" cx="-711.52" cy="-11.171" r="2.3742"/>
  <circle transform="scale(-1,1)" cx="-703.16" cy="-11.068" r="2.3742"/>
  <circle transform="scale(-1,1)" cx="-694.69" cy="-11.068" r="2.3742"/>
  <circle transform="scale(-1,1)" cx="-686.02" cy="-11.068" r="2.3742"/>
  <circle transform="scale(-1,1)" cx="-677.35" cy="-11.068" r="2.3742"/>
  <circle transform="scale(-1,1)" cx="-708.01" cy="-3.5325" r="2.3742"/>
  <circle transform="scale(-1,1)" cx="-699.65" cy="-3.4292" r="2.3742"/>
  <circle transform="scale(-1,1)" cx="-691.18" cy="-3.4292" r="2.3742"/>
  <circle transform="scale(-1,1)" cx="-682.51" cy="-3.4292" r="2.3742"/>
  <circle transform="scale(-1,1)" cx="-712.34" cy="3.6934" r="2.3742"/>
  <circle transform="scale(-1,1)" cx="-703.98" cy="3.7966" r="2.3742"/>
  <circle transform="scale(-1,1)" cx="-695.52" cy="3.7966" r="2.3742"/>
  <circle transform="scale(-1,1)" cx="-686.85" cy="3.7966" r="2.3742"/>
  <circle transform="scale(-1,1)" cx="-678.18" cy="3.7966" r="2.3742"/>
 </g>
 <path d="m80.92 67.305c4.6554-29.445-16.51-48.14-33.445-49.136-35.063-1.1313-38.977 23.069-42.116 30.142-2.1896 8.0229-1.8964 19.425 2.0645 23.949 5.5478 11.371 19.718 17.671 33.858 17.342 12.141 0.91008 21.192-0.7846 29.729-6.1936 6.3222-4.2428 8.0171-8.5197 9.9097-16.103z" fill="#f3cb81"/>
 <g transform="matrix(.28163 -.064987 .064987 .28163 -272.76 3.5496)">
  <rect x="925.71" y="540.71" width="140" height="140" fill="#6dbdc6"/>
  <path d="m960.1 643.19q0-4.1206 2.9218-7.0424t7.0424-2.9218q4.1205 0 7.0424 2.9218 2.9218 2.9219 2.9218 7.0424 0 4.1955-2.9218 7.0799-2.9219 2.8844-7.0424 2.8844-4.1206 0-7.0424-2.9219t-2.9218-7.0424zm0-25.098v-14.31q13.411 0 24.798 6.6304 11.388 6.6304 18.018 18.018 6.6304 11.388 6.6304 24.798h-14.385q0-14.534-10.264-24.798-10.339-10.339-24.798-10.339zm0-25.398v-14.385q15.209 0 29.069 5.9561t23.899 15.995 15.995 23.899q5.956 13.86 5.956 29.069h-14.384q0-12.287-4.7948-23.525-4.7949-11.238-12.924-19.329-8.1288-8.0913-19.329-12.886-11.2-4.7948-23.487-4.7948z" fill="#fff"/>
 </g>
 <g transform="rotate(21.217 34.771 61.396)">
  <path d="m14.61 28.022c4.0444-1.0376 7.2811 1.5071 13.74 0.54342 6.109-1.5383 12.23-3.717 15.904-7.5979 2.4406-2.2631 2.6895-5.0425-1.8206-10.756-7.7926-8.5938-12.637-6.8564-18.905-10.178 2.2741 4.1896 5.6714 7.3978 5.5455 13.05-1.7852 5.4167-10.933 1.3808-15.033 7.6882-8.2445 18.927-3.6731 9.4702 0.56943 7.2506z" fill="#94c1b9"/>
  <path d="m16.63 25.589c8.434 3.5126 22.154-1.6974 24.096-7.3359 1.971-10.394-10.04-13.923-16.931-17.899" fill="none" stroke="#8ba2d7" stroke-width=".43355"/>
  <path d="m15.99 21.85c5.0247 3e-3 12.347 1.7012 17.125-3.8022 4.6977-7.084-5.9997-11.972-8.9995-17.958" fill="none" stroke="#8ba2d7" stroke-width=".43355"/>
 </g>
 <ellipse transform="matrix(.31998 -.94743 -.94743 -.31998 0 0)" cx="-108.85" cy="-69.297" rx="2.7871" ry="4.8516" fill="#f3cb81"/>
 <path d="m66.25 94.164c19.164 20.87 10.188 22.094-7.7214 30.958" fill="none" stroke="#7c82a8" stroke-width="5.7807"/>
 <ellipse transform="matrix(-.048387 -.99883 -.99883 .048387 0 0)" cx="-128.25" cy="-49.643" rx="2.7871" ry="4.8516" fill="#f3cb81"/>
 <g>
  <ellipse transform="matrix(-.97008 .24278 .24278 .97008 -6.675 74.926)" cx="-73.296" cy="4.5884" rx="4.1291" ry="4.7484" stroke-width=".67638"/>
  <ellipse transform="matrix(-.97008 .24278 .24278 .97008 -6.675 74.926)" cx="-36.236" cy="-6.2516" rx="4.1291" ry="4.7484" stroke-width=".67638"/>
  <g stroke="#000" stroke-width=".28903px">
   <path transform="rotate(25.032 -172.1 22.429)" d="m56.474-28.963c-1.9118 7.3988-13.939 12.059-19.536 10.578 14.597 13.202 22.739-2.2097 19.536-10.578z"/>
   <path transform="rotate(25.032 -172.1 22.429)" d="m20.924-49.159c-2.0694 0.71071-5.1448 0.26809-10.257 10.458 2.6977-5.6399 3.9087-10.625 10.257-10.458z"/>
   <path transform="rotate(25.032 -172.1 22.429)" d="m46.374-56.573c2.0645-0.72487 4.2037-2.9783 14.531 1.8502-5.6126-2.754-9.6529-5.9159-14.531-1.8502z"/>
  </g>
 </g>
</svg>
