<svg width="80" height="80" viewBox="0 0 80 80" fill="none" xmlns="http://www.w3.org/2000/svg">
<g clip-path="url(#clip0_2039_9091)">
<path opacity="0.4" d="M55.1095 4H24.9264C11.8159 4 4 11.812 4 24.916V55.048C4 68.188 11.8159 76 24.9264 76H55.0734C68.184 76 75.9999 68.188 75.9999 55.084V24.916C76.0359 11.812 68.22 4 55.1095 4Z" fill="#547EEC"/>
<path d="M40.9887 68H15.0113C13.3651 68 12 66.8667 12 65.5C12 64.1333 13.3651 63 15.0113 63H40.9887C42.6349 63 44 64.1333 44 65.5C44 66.8667 42.675 68 40.9887 68Z" fill="#547EEC" fill-opacity="0.6"/>
<path d="M40.9887 17H15.0113C13.3651 17 12 15.8667 12 14.5C12 13.1333 13.3651 12 15.0113 12H40.9887C42.6349 12 44 13.1333 44 14.5C44 15.8667 42.675 17 40.9887 17Z" fill="#547EEC" fill-opacity="0.6"/>
<path d="M65.9297 68H48.0703C46.9385 68 46 66.8667 46 65.5C46 64.1333 46.9385 63 48.0703 63H65.9297C67.0615 63 68 64.1333 68 65.5C68 66.8667 67.0891 68 65.9297 68Z" fill="#547EEC" fill-opacity="0.6"/>
<path d="M32.5 31C34.9853 31 37 28.9853 37 26.5C37 24.0147 34.9853 22 32.5 22C30.0147 22 28 24.0147 28 26.5C28 28.9853 30.0147 31 32.5 31Z" fill="#547EEC"/>
<path d="M68 35.1355V41.3169C68 51.1425 61.749 57 51.2634 57H27.1235C19.7778 57 14.4774 54.1117 12 48.983L12.3169 48.7671L26.4897 39.8593C28.7942 38.4016 32.0494 38.5636 34.0946 40.2372L35.0741 40.993C37.321 42.8015 40.9506 42.8015 43.1975 40.993L55.1811 31.3564C57.428 29.5479 61.0576 29.5479 63.3045 31.3564L68 35.1355Z" fill="#547EEC"/>
</g>
<defs>
<clipPath id="clip0_2039_9091">
<rect width="80" height="80" fill="white"/>
</clipPath>
</defs>
</svg>
