<svg width="40" height="40" viewBox="0 0 40 40" fill="none" xmlns="http://www.w3.org/2000/svg">
<path opacity="0.4" d="M36.6666 13.0168V23.1668L33.95 20.8335C32.65 19.7168 30.55 19.7168 29.25 20.8335L22.3166 26.7835C21.0166 27.9002 18.9166 27.9002 17.6166 26.7835L17.05 26.3168C15.8666 25.2835 13.9833 25.1835 12.65 26.0835L4.44998 31.5835L4.26665 31.7168C3.64998 30.3835 3.33331 28.8002 3.33331 26.9835V13.0168C3.33331 6.95016 6.94998 3.3335 13.0166 3.3335H26.9833C33.05 3.3335 36.6666 6.95016 36.6666 13.0168Z" fill="#7DCB76"/>
<path d="M15 17.3C17.1907 17.3 18.9667 15.5241 18.9667 13.3334C18.9667 11.1426 17.1907 9.3667 15 9.3667C12.8093 9.3667 11.0333 11.1426 11.0333 13.3334C11.0333 15.5241 12.8093 17.3 15 17.3Z" fill="#7DCB76"/>
<path d="M36.6667 23.1664V26.9831C36.6667 33.0498 33.05 36.6664 26.9833 36.6664H13.0167C8.76666 36.6664 5.7 34.8831 4.26666 31.7164L4.45 31.5831L12.65 26.0831C13.9833 25.1831 15.8667 25.2831 17.05 26.3164L17.6167 26.7831C18.9167 27.8998 21.0167 27.8998 22.3167 26.7831L29.25 20.8331C30.55 19.7164 32.65 19.7164 33.95 20.8331L36.6667 23.1664Z" fill="#7DCB76"/>
</svg>
