<svg width="80" height="80" viewBox="0 0 80 80" fill="none" xmlns="http://www.w3.org/2000/svg">
<rect opacity="0.4" x="4" y="4" width="51" height="73" rx="8" fill="#FF7979"/>
<path opacity="0.6" d="M48.3134 69H41.6866C40.2179 69 39 67.8667 39 66.5C39 65.1333 40.2179 64 41.6866 64H48.3134C49.7821 64 51 65.1333 51 66.5C51 67.8667 49.7821 69 48.3134 69Z" fill="#FF7979"/>
<path opacity="0.6" d="M32.4592 69H10.5408C9.15182 69 8 67.8667 8 66.5C8 65.1333 9.15182 64 10.5408 64H32.4592C33.8482 64 35 65.1333 35 66.5C35 67.8667 33.8821 69 32.4592 69Z" fill="#FF7979"/>
<path opacity="0.6" d="M29.4395 17H10.5605C9.16074 17 8 15.8667 8 14.5C8 13.1333 9.16074 12 10.5605 12H29.4395C30.8393 12 32 13.1333 32 14.5C32 15.8667 30.8393 17 29.4395 17Z" fill="#FF7979"/>
<path d="M65.9508 70.7891C65.6512 70.8123 65.1799 70.686 64.9321 70.5161C62.7887 69.0278 58.4286 64.0137 60.0583 57.9315C60.7783 55.2445 63.3977 53.6182 65.9217 54.2945C67.4117 54.6937 68.5318 55.8044 69.049 57.2192C70.1848 56.2645 71.7297 55.8507 73.2198 56.25C75.7437 56.9263 77.1991 59.6444 76.4791 62.3315C74.8493 68.4136 68.5664 70.5759 65.9508 70.7891Z" fill="#FF6363"/>
<path d="M70.8222 51.4552C70.6634 51.6408 70.3199 51.8391 70.0798 51.8839C67.9923 52.2604 62.604 51.8845 60.0447 47.4517C58.914 45.4933 59.4849 43.0529 61.3244 41.9908C62.4103 41.3638 63.6926 41.3584 64.8031 41.8743C64.9073 40.6728 65.5574 39.5469 66.6434 38.9199C68.4829 37.8579 70.8818 38.5837 72.0125 40.5421C74.5718 44.9749 72.2032 49.8293 70.8222 51.4552Z" fill="#FF6363"/>
<path d="M68.3798 35.8769C68.1397 35.8321 67.7962 35.6338 67.6374 35.4483C66.2675 33.8287 63.8989 28.9743 66.4582 24.5415C67.5889 22.5831 69.9878 21.8573 71.8273 22.9193C72.9133 23.5463 73.5591 24.6541 73.6676 25.8738C74.7602 25.3632 76.0603 25.3633 77.1463 25.9903C78.9858 27.0523 79.5567 29.4927 78.426 31.4511C75.8667 35.8839 70.4784 36.2599 68.3798 35.8769Z" fill="#FF6363"/>
<path d="M22.5 35C25.5376 35 28 32.5376 28 29.5C28 26.4624 25.5376 24 22.5 24C19.4624 24 17 26.4624 17 29.5C17 32.5376 19.4624 35 22.5 35Z" fill="#FF7979"/>
<path d="M51 39.1845V44.2212C51 52.2272 46.2001 57 38.1487 57H19.6127C13.9722 57 9.90226 54.6466 8 50.4676L8.24331 50.2917L19.126 43.0335C20.8956 41.8458 23.3951 41.9778 24.9655 43.3414L25.7176 43.9573C27.4429 45.4309 30.2299 45.4309 31.9552 43.9573L41.1569 36.1052C42.8822 34.6316 45.6692 34.6316 47.3945 36.1052L51 39.1845Z" fill="#FF7979"/>
</svg>
