<svg width="40" height="40" viewBox="0 0 40 40" fill="none" xmlns="http://www.w3.org/2000/svg">
<path d="M10.4245 26.7001C9.96294 26.7001 9.50135 26.5301 9.13694 26.1657L4.27809 21.3068C3.57356 20.6023 3.57356 19.436 4.27809 18.7315L9.13694 13.8726C9.84147 13.1681 11.0076 13.1681 11.7121 13.8726C12.4167 14.5772 12.4167 15.7434 11.7121 16.448L8.14087 20.0191L11.7121 23.5903C12.4167 24.2949 12.4167 25.4611 11.7121 26.1657C11.3477 26.5301 10.8861 26.7001 10.4245 26.7001Z" fill="#F2804E"/>
<path d="M29.8605 26.7001C29.3989 26.7001 28.9373 26.5301 28.5729 26.1657C27.8684 25.4611 27.8684 24.2949 28.5729 23.5903L32.1441 20.0191L28.5729 16.448C27.8684 15.7434 27.8684 14.5772 28.5729 13.8726C29.2774 13.1681 30.4435 13.1681 31.1481 13.8726L36.0069 18.7315C36.7114 19.436 36.7114 20.6023 36.0069 21.3068L31.1481 26.1657C30.7837 26.5301 30.3221 26.7001 29.8605 26.7001Z" fill="#F2804E"/>
<path opacity="0.4" d="M17.7128 27.5C17.4699 27.5 17.227 27.4514 17.0083 27.3542C16.0851 26.9655 15.6478 25.8966 16.0609 24.9491L20.9197 13.6036C21.3084 12.6805 22.3773 12.2431 23.3005 12.6561C24.2237 13.0448 24.661 14.1139 24.248 15.0614L19.3891 26.4067C19.0976 27.087 18.4174 27.5 17.7128 27.5Z" fill="#F2804E"/>
</svg>
