<svg width="40" height="40" viewBox="0 0 40 40" fill="none" xmlns="http://www.w3.org/2000/svg">
<path opacity="0.4" d="M33.9333 21.2168C33.3166 21.2168 32.7999 20.7501 32.7333 20.1335C32.3333 16.4668 30.3666 13.1668 27.3333 11.0668C26.7833 10.6835 26.6499 9.93345 27.0333 9.38345C27.4166 8.83345 28.1666 8.70012 28.7166 9.08345C32.3333 11.6001 34.6666 15.5335 35.15 19.8835C35.2166 20.5501 34.7333 21.1501 34.0666 21.2168C34.0166 21.2168 33.9833 21.2168 33.9333 21.2168Z" fill="#547EEC"/>
<path opacity="0.4" d="M6.23337 21.2998C6.20003 21.2998 6.15003 21.2998 6.1167 21.2998C5.45003 21.2332 4.9667 20.6332 5.03337 19.9665C5.48337 15.6165 7.78337 11.6832 11.3667 9.14985C11.9 8.76651 12.6667 8.89985 13.05 9.43318C13.4334 9.98318 13.3 10.7332 12.7667 11.1165C9.7667 13.2498 7.8167 16.5498 7.45003 20.1998C7.38337 20.8332 6.85003 21.2998 6.23337 21.2998Z" fill="#547EEC"/>
<path opacity="0.4" d="M26.65 35.1669C24.6 36.1502 22.4 36.6502 20.1 36.6502C17.7 36.6502 15.4167 36.1169 13.2834 35.0336C12.6834 34.7502 12.45 34.0169 12.75 33.4169C13.0334 32.8169 13.7667 32.5836 14.3667 32.8669C15.4167 33.4002 16.5334 33.7669 17.6667 33.9836C19.2 34.2836 20.7667 34.3002 22.3 34.0336C23.4334 33.8336 24.55 33.4836 25.5834 32.9836C26.2 32.7002 26.9334 32.9336 27.2 33.5502C27.5 34.1502 27.2667 34.8836 26.65 35.1669Z" fill="#547EEC"/>
<path d="M20.0833 3.3501C17.5 3.3501 15.3833 5.4501 15.3833 8.0501C15.3833 10.6501 17.4833 12.7501 20.0833 12.7501C22.6833 12.7501 24.7833 10.6501 24.7833 8.0501C24.7833 5.4501 22.6833 3.3501 20.0833 3.3501Z" fill="#547EEC"/>
<path d="M8.41668 23.1167C5.83334 23.1167 3.71667 25.2167 3.71667 27.8167C3.71667 30.4167 5.81668 32.5167 8.41668 32.5167C11.0167 32.5167 13.1167 30.4167 13.1167 27.8167C13.1167 25.2167 11 23.1167 8.41668 23.1167Z" fill="#547EEC"/>
<path d="M31.5833 23.1167C29 23.1167 26.8833 25.2167 26.8833 27.8167C26.8833 30.4167 28.9833 32.5167 31.5833 32.5167C34.1833 32.5167 36.2833 30.4167 36.2833 27.8167C36.2833 25.2167 34.1833 23.1167 31.5833 23.1167Z" fill="#547EEC"/>
</svg>
