<svg width="40" height="40" viewBox="0 0 40 40" fill="none" xmlns="http://www.w3.org/2000/svg">
<path d="M29.0334 7.34991H8.98339L12.1167 4.21667C12.6 3.73333 12.6 2.93324 12.1167 2.4499C11.6333 1.96657 10.8333 1.96657 10.35 2.4499L5.08334 7.71663C4.96668 7.83329 4.88339 7.96661 4.81672 8.11661C4.75005 8.26661 4.71667 8.43324 4.71667 8.59991C4.71667 8.76657 4.75005 8.93331 4.81672 9.0833C4.88339 9.2333 4.96668 9.36662 5.08334 9.48329L10.35 14.7499C10.6 14.9999 10.9167 15.1166 11.2333 15.1166C11.55 15.1166 11.8667 14.9999 12.1167 14.7499C12.6 14.2666 12.6 13.4666 12.1167 12.9832L8.98339 9.84991H29.0334C31.1001 9.84991 32.7834 11.5332 32.7834 13.5999V19.1333C32.7834 19.8166 33.3501 20.3833 34.0334 20.3833C34.7167 20.3833 35.2834 19.8166 35.2834 19.1333V13.5999C35.2834 10.1499 32.4834 7.34991 29.0334 7.34991Z" fill="#F1B10D"/>
<path opacity="0.4" d="M35.2834 31.4C35.2834 31.2334 35.25 31.0666 35.1833 30.9166C35.1167 30.7666 35.0334 30.6333 34.9167 30.5167L29.65 25.25C29.1667 24.7667 28.3667 24.7667 27.8834 25.25C27.4 25.7334 27.4 26.5334 27.8834 27.0167L31.0167 30.15H10.9667C8.90001 30.15 7.21667 28.4667 7.21667 26.4V20.8667C7.21667 20.1834 6.65001 19.6167 5.96667 19.6167C5.28334 19.6167 4.71667 20.1834 4.71667 20.8667V26.4C4.71667 29.85 7.51667 32.65 10.9667 32.65H31.0167L27.8834 35.7833C27.4 36.2666 27.4 37.0667 27.8834 37.55C28.1334 37.8 28.45 37.9167 28.7667 37.9167C29.0834 37.9167 29.4 37.8 29.65 37.55L34.9167 32.2833C35.0334 32.1667 35.1167 32.0333 35.1833 31.8833C35.25 31.7333 35.2834 31.5667 35.2834 31.4Z" fill="#F1B10D"/>
</svg>
